<?xml version="1.0" encoding="utf-8"?>
<svg width="278px" height="244px" viewBox="0 0 278 244" version="1.1" xmlns:xlink="http://www.w3.org/1999/xlink" xmlns="http://www.w3.org/2000/svg">
  <desc>Created with Lunacy</desc>
  <defs>
    <linearGradient x1="0.5" y1="0" x2="0.5" y2="0.466558963" id="gradient_1">
      <stop offset="0" stop-color="#FFFFFF" />
      <stop offset="1" stop-color="#FEF4EA" />
    </linearGradient>
  </defs>
  <g id="Group-4" transform="translate(2.399902 2.399902)">
    <g id="Group-3">
      <g id="illustration">
        <path d="M106.051 193C154.292 193 266.277 187.398 272.746 106.222C279.216 25.0449 160.243 -5.57877e-11 112.002 -5.57877e-11C63.7605 -5.57877e-11 2.27359e-12 25.6456 2.27359e-12 92.9379C2.27359e-12 160.23 57.8097 193 106.051 193Z" transform="translate(0 25)" id="Oval" fill="url(#gradient_1)" stroke="none" />
        <g id="Group-4" transform="translate(53 144)">
          <path d="M11.8505 0.00225138L40.9897 0.0077873Q41.2804 0.00784254 41.5708 0.0221599Q41.8612 0.0364772 42.1505 0.0650221Q42.4398 0.093567 42.7274 0.136271Q43.015 0.178975 43.3001 0.235734Q43.5853 0.292494 43.8673 0.363173Q44.1493 0.433853 44.4275 0.518281Q44.7057 0.602709 44.9794 0.700684Q45.2531 0.798658 45.5217 0.909942Q45.7903 1.02123 46.0531 1.14555Q46.3159 1.26988 46.5723 1.40695Q46.8287 1.54402 47.0781 1.6935Q47.3274 1.84298 47.5692 2.00451Q47.8109 2.16605 48.0444 2.33925Q48.2779 2.51244 48.5027 2.69689Q48.7274 2.88133 48.9428 3.07658Q49.1582 3.27183 49.3638 3.47741Q49.5694 3.68298 49.7646 3.8984Q49.9599 4.11382 50.1443 4.33855Q50.3288 4.56329 50.502 4.7968Q50.6752 5.03031 50.8367 5.27204Q50.9982 5.51377 51.1477 5.76313Q51.2972 6.01249 51.4343 6.26889Q51.5713 6.52528 51.6957 6.78809Q51.82 7.0509 51.9313 7.31949Q52.0426 7.58808 52.1405 7.86181Q52.2385 8.13554 52.3229 8.41374Q52.4074 8.69194 52.478 8.97396Q52.5487 9.25597 52.6055 9.5411Q52.6622 9.82624 52.7049 10.1138Q52.7476 10.4014 52.7762 10.6907Q52.8047 10.9801 52.819 11.2704Q52.8334 11.5608 52.8334 11.8516L52.8452 74.1665Q52.8452 74.4574 52.831 74.7479Q52.8168 75.0385 52.7883 75.3279Q52.7599 75.6174 52.7172 75.9052Q52.6746 76.1929 52.6179 76.4782Q52.5612 76.7635 52.4906 77.0456Q52.4199 77.3278 52.3355 77.6062Q52.2511 77.8845 52.1531 78.1584Q52.0552 78.4323 51.9439 78.701Q51.8326 78.9698 51.7083 79.2327Q51.5839 79.4957 51.4468 79.7522Q51.3097 80.0088 51.1602 80.2583Q51.0107 80.5078 50.8491 80.7496Q50.6875 80.9915 50.5142 81.2251Q50.341 81.4587 50.1564 81.6836Q49.9719 81.9084 49.7766 82.124Q49.5812 82.3395 49.3756 82.5452Q49.1699 82.7509 48.9544 82.9462Q48.7388 83.1415 48.514 83.326Q48.2891 83.5106 48.0555 83.6838Q47.8219 83.8571 47.58 84.0187Q47.3381 84.1803 47.0886 84.3298Q46.8391 84.4793 46.5826 84.6164Q46.3261 84.7535 46.0631 84.8779Q45.8002 85.0022 45.5314 85.1135Q45.2627 85.2248 44.9888 85.3227Q44.7149 85.4207 44.4365 85.5051Q44.1582 85.5895 43.876 85.6602Q43.5939 85.7308 43.3086 85.7875Q43.0233 85.8442 42.7355 85.8868Q42.4478 85.9295 42.1583 85.9579Q41.8689 85.9864 41.5783 86.0006Q41.2878 86.0148 40.9969 86.0148L11.8578 86.0092Q11.567 86.0092 11.2766 85.9949Q10.9863 85.9806 10.6969 85.952Q10.4076 85.9235 10.12 85.8808Q9.83245 85.8381 9.54731 85.7813Q9.26218 85.7245 8.98017 85.6539Q8.69816 85.5832 8.41995 85.4987Q8.14175 85.4143 7.86802 85.3163Q7.59429 85.2184 7.3257 85.1071Q7.05711 84.9958 6.7943 84.8715Q6.53149 84.7472 6.2751 84.6101Q6.0187 84.473 5.76934 84.3235Q5.51998 84.1741 5.27825 84.0125Q5.03653 83.851 4.80301 83.6778Q4.5695 83.5046 4.34477 83.3201Q4.12003 83.1357 3.90461 82.9404Q3.6892 82.7452 3.48362 82.5396Q3.27804 82.334 3.08279 82.1186Q2.88755 81.9032 2.7031 81.6785Q2.51866 81.4538 2.34546 81.2202Q2.17226 80.9867 2.01073 80.745Q1.8492 80.5033 1.69971 80.2539Q1.55023 80.0045 1.41316 79.7481Q1.2761 79.4918 1.15177 79.229Q1.02744 78.9661 0.91616 78.6975Q0.804876 78.4289 0.706902 78.1552Q0.608928 77.8815 0.5245 77.6033Q0.440072 77.3251 0.369393 77.0431Q0.298715 76.7611 0.241955 76.4759Q0.185195 76.1908 0.142492 75.9032Q0.0997885 75.6156 0.0712439 75.3263Q0.0426993 75.037 0.0283823 74.7466Q0.0140653 74.4562 0.0140104 74.1655L0.00223864 11.8505Q0.00218369 11.5596 0.0164047 11.2691Q0.0306257 10.9786 0.0590885 10.6891Q0.0875512 10.3996 0.130187 10.1119Q0.172823 9.82415 0.229529 9.53886Q0.286235 9.25356 0.356875 8.9714Q0.427515 8.68923 0.511918 8.41087Q0.596321 8.13252 0.694284 7.85864Q0.792248 7.58476 0.903535 7.31601Q1.01482 7.04727 1.13916 6.78432Q1.26351 6.52136 1.40061 6.26482Q1.5377 6.00829 1.68723 5.75879Q1.83675 5.50929 1.99834 5.26743Q2.15993 5.02557 2.33319 4.79193Q2.50646 4.55829 2.69098 4.33344Q2.87551 4.10859 3.07084 3.89306Q3.26618 3.67754 3.47186 3.47186Q3.67753 3.26618 3.89306 3.07085Q4.10858 2.87551 4.33344 2.69099Q4.55829 2.50646 4.79193 2.3332Q5.02557 2.15994 5.26743 1.99835Q5.50928 1.83676 5.75878 1.68723Q6.00828 1.53771 6.26482 1.40061Q6.52136 1.26351 6.78431 1.13917Q7.04727 1.01483 7.31601 0.903542Q7.58476 0.792256 7.85864 0.694293Q8.13252 0.59633 8.41087 0.511927Q8.68923 0.427524 8.9714 0.356885Q9.25356 0.286245 9.53886 0.229539Q9.82415 0.172833 10.1119 0.130198Q10.3996 0.0875624 10.6891 0.0591Q10.9786 0.0306376 11.2691 0.0164168Q11.5596 0.00219612 11.8505 0.00225138L11.8505 0.00225138Z" transform="matrix(-0.9994444 -0.03332966 0.03332966 -0.9994444 71.36908 94.50499)" id="Rectangle" fill="#FFC2B0" stroke="none" />
          <path d="M46.806 40.8449C54.0695 43.764 62.0878 43.9384 69.4623 41.3376C79.4312 37.3529 86.4752 22.7852 78.6485 15.2228C74.4261 11.131 63.5923 7.42478 54.5915 3.63288C29.031 -7.07868 1.34902 6.46074 0.380978 36.8173C0.380978 36.8173 -3.90314 74.3078 16.261 82.8128C17.8871 83.4676 19.731 83.0739 20.9777 81.8059L21.1219 81.6559C22.5273 80.2447 22.931 78.0682 22.1311 76.2145C20.2774 71.9298 18.5679 63.3606 28.6809 57.0622C30.7803 55.5171 32.0972 53.069 32.2647 50.3996C32.6821 46.9646 34.5541 43.9036 37.3684 42.0544C40.1826 40.2052 43.6443 39.7616 46.806 40.8449L46.806 40.8449Z" id="Path" fill="#247051" stroke="none" />
          <path d="M4.90186 16.8002C8.96809 19.7217 13.649 18.7206 15.3275 14.5325C16.8356 9.88264 15.1477 4.89652 10.9776 1.68213C6.88769 -1.25976 2.23045 -0.238273 0.551951 3.92941C-0.971885 8.58554 0.71768 13.5847 4.90186 16.8002Z" transform="translate(9.258064 52.77778)" id="Path" fill="#FFC2B0" stroke="none" />
        </g>
        <g id="Group-5" transform="matrix(-1 0 0 1 133 15)">
          <path d="M29.3997 74.8276C29.3997 74.8276 31.1518 85.7269 42.6629 79.7933C46.167 78.0006 77.056 43.3847 52.8774 9.39626C37.5643 -12.1154 0 10.0416 0 10.0416L29.3997 74.8276Z" transform="translate(43.27124 22.73034)" id="Path" fill="#234091" stroke="none" />
          <path d="M26.2257 93.0812C40.7578 93.0539 52.5776 72.1948 52.6258 46.4911C52.674 20.7875 40.9324 -0.0273136 26.4003 2.69033e-05C11.8681 0.0273674 0.0483634 20.8865 0.000147963 46.5901C-0.0480674 72.2938 11.6935 93.1086 26.2257 93.0812Z" transform="matrix(0.8997102 -0.4364877 0.4364877 0.8997102 0.2017059 35.0966)" id="Oval" fill="#FFC2B0" stroke="none" />
          <path d="M67.4065 56.1292C68.3707 78.5133 49.3836 93.2388 32.4478 84.217C15.512 75.1952 0.995535 49.744 0.0488111 27.3599C-0.897913 4.97576 12.0406 -5.83965 28.9765 3.18216C45.9123 12.204 66.4422 33.763 67.4065 56.1292Z" transform="translate(25.73639 12.03371)" id="Path" fill="#FFC2B0" stroke="none" />
          <path d="M20.2231 9.59999C20.4618 15.133 16.1303 19.8102 10.5485 20.0468C4.96663 20.2835 0.248134 15.9899 0.00941218 10.4569C-0.22931 4.92384 4.10214 0.246598 9.68399 0.0099492C12.3658 -0.108605 14.9848 0.836252 16.9624 2.63574C18.94 4.43523 20.1133 6.94122 20.2231 9.59999Z" transform="translate(78.34094 65.51685)" id="Path" fill="#FFC2B0" stroke="none" />
          <path d="M17.1712 34.0854C17.1712 34.0854 23.4511 85.8163 75.9873 66.5764C75.9873 66.5764 101.107 32.1848 60.2516 6.81241C24.2226 -15.5475 0 24.2951 0 24.2951L17.1712 34.0854Z" transform="translate(23.03872 0)" id="Path" fill="#234091" stroke="none" />
          <path d="M2.90287 37.4382C2.90287 37.4382 7.35443 18.6812 31.0232 10.3343L12.0047 0C12.0047 0 -7.11314 4.54255 2.90287 37.4382Z" transform="translate(10.89921 24.06742)" id="Path" fill="#234091" stroke="none" />
        </g>
        <g id="Group-7" transform="translate(150 78)">
          <path d="M38.7957 93.333C38.7957 93.333 9.32503 93.7457 1.38813 64.6843C-6.54878 35.623 20.9051 -9.45309 49.2373 1.75244C77.5694 12.958 38.7957 93.333 38.7957 93.333Z" transform="translate(8.126582 6.666667)" id="Path" fill="#242933" stroke="none" />
          <path d="M59.3887 55.8779C58.6579 74.6583 33.2269 81.4167 16.8738 71.3348C0.520711 61.2528 -0.567332 38.1629 0.163443 19.3666C0.894218 0.570216 27.1371 -5.17046 43.4903 4.9115C59.8434 14.9935 60.1032 37.0975 59.3887 55.8779Z" transform="translate(21.67089 20)" id="Path" fill="#FFC2B0" stroke="none" />
          <path d="M8.84651 69.3333C17.1147 44.9153 35.6142 25.2265 59.5949 15.3223C59.5949 15.3223 55.1707 1.46883 48.7621 0.275392C42.3535 -0.918043 6.47174 1.13015 1.25051 19.322C-3.97072 37.5138 8.84651 69.3333 8.84651 69.3333Z" transform="translate(0 2.666667)" id="Path" fill="#242933" stroke="none" />
          <path d="M29.9334 132C29.9334 132 26.909 92.0175 42.5051 62.425C42.5051 62.425 9.4819 40.7365 0 25.773L0 9.83731C0 9.83731 31.9115 -15.5482 55.2893 15.2395C78.6671 46.0272 64.7222 96.3201 70.0026 109.164C75.283 122.008 29.9334 132 29.9334 132Z" transform="translate(36.56962 0)" id="Path" fill="#242933" stroke="none" />
          <path d="M10.3002 17.1507C15.986 17.1541 20.593 13.3175 20.5902 8.5815C20.5875 3.84547 15.9759 0.00340004 10.2901 2.25516e-06C4.60424 -0.00339553 -0.00278545 3.83316 1.26356e-06 8.5692C0.00278798 13.3052 4.61433 17.1473 10.3002 17.1507Z" transform="matrix(0.03821344 -0.9992696 0.9992696 0.03821344 67.36967 76.09306)" id="Oval" fill="#FFC2B0" stroke="none" />
        </g>
        <g id="Group-6" transform="matrix(0.9816272 0.190809 -0.190809 0.9816272 149.6901 0.1729021)">
          <path d="M78.0183 53.535L0 53.535L0 0L78.0183 0L78.0183 53.535Z" id="Shape" fill="#000000" stroke="none" />
          <path d="M0 50.2993L74.7431 50.2993L74.7431 0L4.65434e-14 0L0 50.2993Z" transform="translate(1.637599 1.617881)" id="Path" fill="#FFFFFF" stroke="none" />
          <path d="M38.6993 28.1059L0 1.35716L0.94199 0.00329408L38.7067 26.1072L77.0862 0L78.0183 1.36045L38.6993 28.1059L38.6993 28.1059Z" id="Path" fill="#000000" stroke="none" />
        </g>
      </g>
    </g>
  </g>
</svg>