<?xml version="1.0" encoding="utf-8"?>
<svg width="165px" height="44px" viewBox="0 0 165 44" version="1.1" xmlns:xlink="http://www.w3.org/1999/xlink" xmlns="http://www.w3.org/2000/svg">
  <desc>Created with Lunacy</desc>
  <g id="logo">
    <g id="al+-minutes" transform="translate(53 8)">
      <g id="al+" fill="#171932">
        <path d="M13.0398 18.1387L12.073 18.1387L12.073 2.94336L13.0398 2.94336L13.0398 18.1387ZM24.859 10.6777L20.6207 10.6777L20.6207 6.43945L19.8199 6.43945L19.8199 10.6777L15.6012 10.6777L15.6012 11.4785L19.8199 11.4785L19.8199 15.6973L20.6207 15.6973L20.6207 11.4785L24.859 11.4785L24.859 10.6777ZM8.22266 18.1387L7.97852 16.459L7.90039 16.459Q7.09961 17.4844 6.25488 17.9092Q5.41016 18.334 4.25781 18.334Q2.69531 18.334 1.82617 17.5332Q0.957031 16.7324 0.957031 15.3164Q0.957031 13.7637 2.25098 12.9043Q3.54492 12.0449 5.99609 11.9961L8.01758 11.9375L8.01758 11.2344Q8.01758 9.7207 7.40234 8.94922Q6.78711 8.17774 5.41992 8.17773Q3.94531 8.17774 2.36328 8.99805L2.00195 8.1582Q3.75 7.33789 5.45898 7.33789Q7.20703 7.33789 8.07129 8.24609Q8.93555 9.1543 8.93555 11.0781L8.93555 18.1387L8.22266 18.1387ZM4.31641 17.4551Q6.01563 17.4551 6.99707 16.4834Q7.97852 15.5117 7.97852 13.7832L7.97852 12.7383L6.12305 12.8164Q3.88672 12.9238 2.93457 13.5146Q1.98242 14.1055 1.98242 15.3555Q1.98242 16.3516 2.59277 16.9033Q3.20313 17.4551 4.31641 17.4551Z" />
      </g>
      <g id="minutes" fill="#171932">
        <path d="M51.6027 4.39844Q51.6027 2.94336 53.2238 2.94336Q54.8449 2.94336 54.8449 4.39844Q54.8449 5.0918 54.4396 5.47754Q54.0344 5.86328 53.2238 5.86328Q51.6027 5.86328 51.6027 4.39844ZM89.6969 15.6191Q88.6031 15.9609 87.8219 15.9609Q87.2359 15.9609 86.8795 15.6582Q86.523 15.3555 86.523 14.7207L86.523 9.45703L89.5797 9.45703L89.5797 7.2207L86.523 7.2207L86.523 4.89648L84.6187 4.89648L83.7594 7.20117L82.1187 8.19727L82.1187 9.45703L83.5445 9.45703L83.5445 14.7207Q83.5445 16.5273 84.36 17.4307Q85.1754 18.334 86.9625 18.334Q88.5836 18.334 89.6969 17.8359L89.6969 15.6191ZM42.1664 18.1387L39.1879 18.1387L39.1879 11.7617Q39.1879 10.5801 38.7924 9.98926Q38.3969 9.39844 37.5473 9.39844Q36.4047 9.39844 35.8871 10.2383Q35.3695 11.0781 35.3695 13.002L35.3695 18.1387L32.391 18.1387L32.391 7.2207L34.6664 7.2207L35.0668 8.61719L35.2328 8.61719Q35.6723 7.86524 36.5023 7.44043Q37.3324 7.01563 38.4066 7.01563Q40.8578 7.01563 41.727 8.61719L41.9906 8.61719Q42.4301 7.85547 43.2846 7.43555Q44.1391 7.01563 45.2133 7.01563Q47.0687 7.01563 48.0209 7.96777Q48.973 8.91992 48.973 11.0195L48.973 18.1387L45.9848 18.1387L45.9848 11.7617Q45.9848 10.5801 45.5893 9.98926Q45.1937 9.39844 44.3441 9.39844Q43.2504 9.39844 42.7084 10.1797Q42.1664 10.9609 42.1664 12.6602L42.1664 18.1387ZM64.6328 18.1387L67.6113 18.1387L67.6113 11.0195Q67.6113 9.07617 66.625 8.0459Q65.6387 7.01563 63.7344 7.01563Q62.6211 7.01563 61.7471 7.4209Q60.873 7.82617 60.375 8.61719L60.209 8.61719L59.8086 7.2207L57.5332 7.2207L57.5332 18.1387L60.5117 18.1387L60.5117 13.002Q60.5117 11.0684 61.0684 10.2334Q61.625 9.39844 62.875 9.39844Q63.793 9.39844 64.2129 9.98926Q64.6328 10.5801 64.6328 11.7617L64.6328 18.1387ZM96.5453 18.334Q93.9086 18.334 92.4242 16.8789Q90.9398 15.4238 90.9398 12.7578Q90.9398 10.0137 92.3119 8.51465Q93.684 7.01563 96.1059 7.01563Q98.4203 7.01563 99.7094 8.33398Q100.998 9.65234 100.998 11.9766L100.998 13.4219L93.9574 13.4219Q94.0062 14.6914 94.7094 15.4043Q95.4125 16.1172 96.682 16.1172Q97.6684 16.1172 98.5473 15.9121Q99.4262 15.707 100.383 15.2578L100.383 17.5625Q99.6019 17.9531 98.7133 18.1436Q97.8246 18.334 96.5453 18.334ZM109.57 17.4551Q110.737 16.5762 110.737 14.8965Q110.737 14.0859 110.454 13.5Q110.171 12.9141 109.575 12.4648Q108.98 12.0156 107.7 11.498Q106.265 10.9219 105.84 10.6289Q105.415 10.3359 105.415 9.93555Q105.415 9.22266 106.734 9.22266Q107.476 9.22266 108.189 9.44727Q108.902 9.67188 109.722 10.0234L110.62 7.875Q108.755 7.01563 106.782 7.01563Q104.712 7.01563 103.584 7.81152Q102.456 8.60742 102.456 10.0625Q102.456 10.9121 102.725 11.4932Q102.993 12.0742 103.584 12.5234Q104.175 12.9727 105.435 13.5Q106.314 13.8711 106.841 14.1494Q107.368 14.4277 107.583 14.6475Q107.798 14.8672 107.798 15.2188Q107.798 16.1563 106.177 16.1563Q105.386 16.1563 104.346 15.8926Q103.306 15.6289 102.476 15.2383L102.476 17.6992Q103.208 18.0117 104.048 18.1729Q104.888 18.334 106.079 18.334Q108.404 18.334 109.57 17.4551ZM54.7082 18.1387L51.7297 18.1387L51.7297 7.2207L54.7082 7.2207L54.7082 18.1387ZM78.1121 18.1387L77.7117 16.7422L77.5555 16.7422Q77.077 17.5039 76.198 17.9189Q75.3191 18.334 74.1961 18.334Q72.2723 18.334 71.2957 17.3037Q70.3191 16.2734 70.3191 14.3398L70.3191 7.2207L73.2977 7.2207L73.2977 13.5977Q73.2977 14.7793 73.7176 15.3701Q74.1375 15.9609 75.0555 15.9609Q76.3055 15.9609 76.8621 15.126Q77.4187 14.291 77.4187 12.3574L77.4187 7.2207L80.3973 7.2207L80.3973 18.1387L78.1121 18.1387ZM96.1254 9.13477Q95.1781 9.13477 94.641 9.73535Q94.1039 10.3359 94.0258 11.4395L98.2055 11.4395Q98.1859 10.3359 97.6293 9.73535Q97.0726 9.13477 96.1254 9.13477Z" />
      </g>
    </g>
    <g id="Group" transform="translate(0 1)">
      <path d="M10.3019 4.01961C10.3019 1.79966 12.0759 0 14.2642 0C16.4524 0 18.2264 1.79966 18.2264 4.01961L18.2264 15.9908C18.2264 16.5234 18.8901 16.8824 19.4151 16.8824C19.9401 16.8824 20.6038 16.5234 20.6038 15.9908L20.6038 15.2745C20.6038 13.0545 22.3778 11.2549 24.566 11.2549C26.7544 11.2549 28.5283 13.0546 28.5283 15.2745L28.5283 29.7451C28.5283 31.9651 26.7544 33.7647 24.566 33.7647C22.3778 33.7647 20.6038 31.9651 20.6038 29.7451L20.6038 28.2249C20.6038 27.6923 19.9401 27.3333 19.4151 27.3333C18.8901 27.3333 18.2264 27.6923 18.2264 28.2249L18.2264 36.9804C18.2264 39.2004 16.4524 41 14.2642 41C12.0759 41 10.3019 39.2004 10.3019 36.9804L10.3019 20.9896C10.3019 20.457 9.63825 20.098 9.11321 20.098C8.58817 20.098 7.92453 20.457 7.92453 20.9896L7.92453 21.7059C7.92453 23.9258 6.15054 25.7255 3.96226 25.7255C1.77397 25.7255 0 23.9258 0 21.7059L0 11.2549C0 9.03495 1.77397 7.23529 3.96226 7.23529C6.15054 7.23529 7.92453 9.03495 7.92453 11.2549L7.92453 11.9712C7.92453 12.5038 8.58817 12.8627 9.11321 12.8627C9.63825 12.8627 10.3019 12.5038 10.3019 11.9712L10.3019 4.01961ZM30.9057 20.5C30.9057 17.392 33.3892 14.8725 36.4528 14.8725C39.5165 14.8725 42 17.392 42 20.5C42 23.608 39.5165 26.1275 36.4528 26.1275C33.3892 26.1275 30.9057 23.608 30.9057 20.5Z" id="Shape" fill="#07A766" fill-rule="evenodd" stroke="none" />
    </g>
  </g>
</svg>