<?xml version="1.0" encoding="utf-8"?>
<svg width="34px" height="34px" viewBox="0 0 34 34" version="1.1" xmlns:xlink="http://www.w3.org/1999/xlink" xmlns="http://www.w3.org/2000/svg">
  <desc>Created with Lunacy</desc>
  <defs>
    <path d="M2.999 0L14.001 0Q14.1483 0 14.295 0.014441Q14.4416 0.028882 14.5861 0.0576249Q14.7306 0.0863679 14.8716 0.129136Q15.0126 0.171904 15.1487 0.228285Q15.2848 0.284667 15.4147 0.354118Q15.5447 0.42357 15.6672 0.505423Q15.7897 0.587276 15.9035 0.680742Q16.0174 0.774208 16.1216 0.878387Q16.2258 0.982566 16.3193 1.09645Q16.4127 1.21034 16.4946 1.33284Q16.5764 1.45535 16.6459 1.58528Q16.7153 1.71522 16.7717 1.85133Q16.8281 1.98745 16.8709 2.12844Q16.9136 2.26942 16.9424 2.41392Q16.9711 2.55842 16.9856 2.70505Q17 2.85167 17 2.999L17 4.60517Q17 4.71817 16.9945 4.83103Q16.9889 4.9439 16.9778 5.05636Q16.9668 5.16881 16.9502 5.28059Q16.9336 5.39237 16.9116 5.5032Q16.8895 5.61403 16.862 5.72364Q16.8346 5.83326 16.8018 5.94139Q16.769 6.04953 16.7309 6.15593Q16.6928 6.26232 16.6496 6.36672Q16.6064 6.47112 16.558 6.57327Q16.5097 6.67543 16.4565 6.77508Q16.4032 6.87474 16.3451 6.97167Q16.287 7.06859 16.2242 7.16255Q16.1614 7.25651 16.0941 7.34727Q16.0268 7.43803 15.9551 7.52538Q15.8834 7.61274 15.8076 7.69646Q15.7317 7.78019 15.6518 7.8601Q15.5719 7.94 15.4881 8.01589Q15.4044 8.09177 15.317 8.16346Q15.2297 8.23515 15.1389 8.30246Q15.0482 8.36978 14.9542 8.43256Q14.8603 8.49534 14.7633 8.55343Q14.6664 8.61153 14.5667 8.6648Q14.4671 8.71806 14.3649 8.76638Q14.2628 8.81469 14.1584 8.85794Q14.054 8.90118 13.9476 8.93925Q13.8412 8.97732 13.7331 9.01012Q13.6249 9.04293 13.5153 9.07038Q13.4057 9.09784 13.2949 9.11988Q13.184 9.14193 13.0723 9.15851Q12.9605 9.17509 12.848 9.18617Q12.7356 9.19724 12.6227 9.20279Q12.5098 9.20833 12.3968 9.20833L4.60317 9.20833Q4.49017 9.20833 4.3773 9.20279Q4.26443 9.19724 4.15198 9.18617Q4.03952 9.17509 3.92774 9.15851Q3.81596 9.14193 3.70513 9.11988Q3.5943 9.09784 3.48469 9.07038Q3.37507 9.04293 3.26694 9.01012Q3.1588 8.97732 3.05241 8.93925Q2.94601 8.90118 2.84161 8.85794Q2.73721 8.81469 2.63506 8.76638Q2.53291 8.71806 2.43325 8.6648Q2.33359 8.61153 2.23667 8.55343Q2.13974 8.49534 2.04578 8.43256Q1.95183 8.36978 1.86106 8.30246Q1.7703 8.23515 1.68295 8.16346Q1.5956 8.09177 1.51187 8.01589Q1.42814 7.94 1.34824 7.8601Q1.26833 7.78019 1.19245 7.69646Q1.11656 7.61274 1.04487 7.52538Q0.973183 7.43803 0.905868 7.34727Q0.838554 7.25651 0.775773 7.16255Q0.712993 7.06859 0.654899 6.97167Q0.596804 6.87474 0.543536 6.77508Q0.490268 6.67543 0.441953 6.57327Q0.393639 6.47112 0.350395 6.36672Q0.307151 6.26232 0.269082 6.15593Q0.231013 6.04953 0.198211 5.94139Q0.165408 5.83326 0.137951 5.72364Q0.110494 5.61403 0.0884485 5.5032Q0.0664031 5.39237 0.0498223 5.28059Q0.0332416 5.16881 0.0221655 5.05636Q0.0110894 4.9439 0.00554472 4.83103Q0 4.71817 0 4.60517L0 2.999Q0 2.85167 0.014441 2.70505Q0.028882 2.55842 0.0576249 2.41392Q0.0863679 2.26942 0.129136 2.12844Q0.171904 1.98745 0.228285 1.85133Q0.284667 1.71522 0.354118 1.58528Q0.42357 1.45535 0.505423 1.33284Q0.587276 1.21034 0.680742 1.09645Q0.774208 0.982566 0.878387 0.878387Q0.982566 0.774208 1.09645 0.680742Q1.21034 0.587276 1.33284 0.505423Q1.45535 0.42357 1.58528 0.354118Q1.71522 0.284667 1.85133 0.228285Q1.98745 0.171904 2.12844 0.129136Q2.26942 0.0863679 2.41392 0.0576249Q2.55842 0.028882 2.70505 0.014441Q2.85167 0 2.999 0L2.999 0Z" transform="translate(0 17.26563)" id="path_1" />
    <path d="M1.21329 0L1.21529 0Q1.27489 0 1.33421 0.0058423Q1.39353 0.0116846 1.45199 0.023313Q1.51045 0.0349413 1.56748 0.0522437Q1.62452 0.0695461 1.67959 0.0923559Q1.73466 0.115166 1.78723 0.143263Q1.83979 0.171361 1.88935 0.204476Q1.93891 0.23759 1.98499 0.275403Q2.03106 0.313216 2.07321 0.355363Q2.11536 0.39751 2.15317 0.443586Q2.19098 0.489661 2.2241 0.539221Q2.25721 0.58878 2.28531 0.641347Q2.31341 0.693914 2.33622 0.748982Q2.35903 0.804049 2.37633 0.861088Q2.39363 0.918126 2.40526 0.976586Q2.41689 1.03505 2.42273 1.09436Q2.42857 1.15368 2.42857 1.21329L2.42857 6.84401Q2.42857 6.90361 2.42273 6.96293Q2.41689 7.02225 2.40526 7.08071Q2.39363 7.13917 2.37633 7.1962Q2.35903 7.25324 2.33622 7.30831Q2.31341 7.36338 2.28531 7.41595Q2.25721 7.46851 2.2241 7.51807Q2.19098 7.56763 2.15317 7.61371Q2.11536 7.65978 2.07321 7.70193Q2.03106 7.74408 1.98499 7.78189Q1.93891 7.8197 1.88935 7.85282Q1.83979 7.88593 1.78723 7.91403Q1.73466 7.94213 1.67959 7.96494Q1.62452 7.98775 1.56748 8.00505Q1.51045 8.02235 1.45199 8.03398Q1.39353 8.04561 1.33421 8.05145Q1.27489 8.05729 1.21529 8.05729L1.21329 8.05729Q1.15368 8.05729 1.09436 8.05145Q1.03505 8.04561 0.976586 8.03398Q0.918126 8.02235 0.861088 8.00505Q0.804049 7.98775 0.748982 7.96494Q0.693914 7.94213 0.641347 7.91403Q0.58878 7.88593 0.539221 7.85282Q0.489661 7.8197 0.443586 7.78189Q0.39751 7.74408 0.355363 7.70193Q0.313216 7.65978 0.275403 7.61371Q0.23759 7.56763 0.204476 7.51807Q0.171361 7.46851 0.143263 7.41595Q0.115166 7.36338 0.0923559 7.30831Q0.0695461 7.25324 0.0522437 7.1962Q0.0349413 7.13917 0.023313 7.08071Q0.0116846 7.02225 0.0058423 6.96293Q0 6.90361 0 6.84401L0 1.21329Q0 1.15368 0.0058423 1.09436Q0.0116846 1.03505 0.023313 0.976586Q0.0349413 0.918126 0.0522437 0.861088Q0.0695461 0.804049 0.0923559 0.748982Q0.115166 0.693914 0.143263 0.641347Q0.171361 0.58878 0.204476 0.539221Q0.23759 0.489661 0.275403 0.443586Q0.313216 0.39751 0.355363 0.355363Q0.39751 0.313216 0.443586 0.275403Q0.489661 0.23759 0.539221 0.204476Q0.58878 0.171361 0.641347 0.143263Q0.693914 0.115166 0.748982 0.0923559Q0.804049 0.0695461 0.861088 0.0522437Q0.918126 0.0349413 0.976586 0.023313Q1.03505 0.0116846 1.09436 0.0058423Q1.15368 0 1.21329 0L1.21329 0Z" transform="translate(7.285714 10.35938)" id="path_2" />
    <path d="M6.07034 8.18184e-14L6.07251 8.18184e-14Q6.21701 8.18184e-14 6.36132 0.00745557Q6.50563 0.0149111 6.64937 0.0298024Q6.7931 0.0446937 6.93587 0.066981Q7.07865 0.0892684 7.22008 0.118892Q7.36151 0.148516 7.50123 0.185398Q7.64095 0.22228 7.77857 0.266321Q7.9162 0.310362 8.05137 0.361446Q8.18654 0.412529 8.3189 0.470519Q8.45125 0.528509 8.58044 0.59325Q8.70963 0.657991 8.83531 0.729312Q8.96098 0.800632 9.08281 0.878342Q9.20464 0.956051 9.32229 1.03994Q9.43995 1.12384 9.55312 1.21369Q9.66629 1.30354 9.77468 1.39911Q9.88306 1.49468 9.98637 1.59571Q10.0897 1.69675 10.1876 1.80298Q10.2856 1.90921 10.3779 2.02035Q10.4703 2.13149 10.5568 2.24725Q10.6433 2.36301 10.7237 2.48308Q10.8041 2.60315 10.8782 2.72721Q10.9523 2.85126 11.0199 2.97898Q11.0875 3.10669 11.1484 3.23772Q11.2093 3.36876 11.2634 3.50276Q11.3175 3.63676 11.3646 3.77337Q11.4117 3.90998 11.4517 4.04884Q11.4916 4.1877 11.5244 4.32844Q11.5572 4.46918 11.5826 4.61142Q11.6081 4.75367 11.6262 4.89703Q11.6443 5.0404 11.6549 5.1845Q11.6656 5.32861 11.6688 5.47308Q11.672 5.61755 11.6678 5.76199Q11.6636 5.90643 11.6519 6.05045L11.3214 10.1232Q11.3114 10.2454 11.2958 10.3671Q11.2803 10.4887 11.259 10.6094Q11.2378 10.7302 11.2109 10.8498Q11.1841 10.9695 11.1517 11.0877Q11.1194 11.206 11.0815 11.3226Q11.0437 11.4393 11.0004 11.554Q10.9572 11.6687 10.9087 11.7813Q10.8602 11.8939 10.8065 12.0042Q10.7528 12.1144 10.694 12.222Q10.6352 12.3296 10.5715 12.4343Q10.5077 12.5391 10.4392 12.6408Q10.3707 12.7424 10.2975 12.8408Q10.2243 12.9392 10.1466 13.034Q10.0689 13.1289 9.98689 13.22Q9.90487 13.3112 9.8187 13.3984Q9.73253 13.4856 9.64239 13.5688Q9.55225 13.6519 9.45834 13.7307Q9.36443 13.8095 9.26695 13.8839Q9.16948 13.9583 9.06865 14.0281Q8.96781 14.0978 8.86384 14.1628Q8.75987 14.2278 8.65299 14.2879Q8.54611 14.348 8.43655 14.403Q8.32698 14.4581 8.21498 14.508Q8.10297 14.5578 7.98877 14.6025Q7.87456 14.6471 7.7584 14.6863Q7.64224 14.7256 7.52438 14.7594Q7.40652 14.7932 7.28722 14.8215Q7.16791 14.8498 7.04742 14.8725Q6.92692 14.8952 6.80551 14.9123Q6.68409 14.9293 6.562 14.9407Q6.43992 14.9521 6.31744 14.9578Q6.19496 14.9635 6.07235 14.9635L6.07051 14.9635Q5.94789 14.9635 5.82541 14.9578Q5.70293 14.9521 5.58085 14.9407Q5.45877 14.9293 5.33735 14.9123Q5.21593 14.8952 5.09544 14.8725Q4.97495 14.8498 4.85564 14.8215Q4.73633 14.7932 4.61847 14.7594Q4.50061 14.7256 4.38446 14.6863Q4.2683 14.6471 4.15409 14.6025Q4.03989 14.5578 3.92788 14.508Q3.81587 14.4581 3.70631 14.403Q3.59675 14.348 3.48987 14.2879Q3.38298 14.2278 3.27901 14.1628Q3.17504 14.0978 3.07421 14.0281Q2.97338 13.9583 2.8759 13.8839Q2.77843 13.8095 2.68452 13.7307Q2.59061 13.6519 2.50047 13.5688Q2.41033 13.4856 2.32416 13.3984Q2.23798 13.3112 2.15596 13.22Q2.07395 13.1289 1.99626 13.034Q1.91857 12.9392 1.84538 12.8408Q1.77219 12.7424 1.70365 12.6408Q1.63512 12.5391 1.5714 12.4343Q1.50767 12.3296 1.44889 12.222Q1.39011 12.1144 1.33639 12.0042Q1.28268 11.8939 1.23416 11.7813Q1.18564 11.6687 1.14241 11.554Q1.09918 11.4393 1.06134 11.3226Q1.02349 11.206 0.991121 11.0877Q0.958747 10.9695 0.931912 10.8498Q0.905078 10.7302 0.88384 10.6094Q0.862602 10.4887 0.847008 10.3671Q0.831414 10.2454 0.821496 10.1232L0.490992 6.05045Q0.479304 5.90643 0.475063 5.76199Q0.470822 5.61755 0.474039 5.47308Q0.477256 5.32861 0.487922 5.1845Q0.498588 5.0404 0.516675 4.89703Q0.534763 4.75367 0.560223 4.61142Q0.585683 4.46918 0.618448 4.32844Q0.651213 4.1877 0.691196 4.04884Q0.731179 3.90998 0.778273 3.77337Q0.825368 3.63676 0.879448 3.50276Q0.933528 3.36876 0.994449 3.23772Q1.05537 3.10669 1.12297 2.97898Q1.19057 2.85126 1.26467 2.72721Q1.33877 2.60315 1.41918 2.48308Q1.49958 2.36301 1.58607 2.24725Q1.67256 2.13149 1.76491 2.02035Q1.85726 1.90921 1.95521 1.80298Q2.05317 1.69675 2.15648 1.59571Q2.25979 1.49468 2.36818 1.39911Q2.47656 1.30354 2.58973 1.21369Q2.70291 1.12384 2.82056 1.03994Q2.93822 0.956051 3.06005 0.878342Q3.18187 0.800632 3.30755 0.729312Q3.43323 0.657991 3.56241 0.59325Q3.6916 0.528509 3.82396 0.470519Q3.95631 0.412529 4.09149 0.361446Q4.22666 0.310363 4.36428 0.266321Q4.50191 0.22228 4.64163 0.185398Q4.78134 0.148516 4.92278 0.118892Q5.06421 0.0892684 5.20698 0.066981Q5.34976 0.0446937 5.49349 0.0298024Q5.63722 0.0149111 5.78153 0.00745557Q5.92584 8.18184e-14 6.07034 8.18184e-14L6.07034 8.18184e-14Z" transform="translate(2.428571 0)" id="path_3" />
  </defs>
  <g id="icon_admin" style="mix-blend-mode: luminosity;">
    <g id="Group" transform="translate(4.25 3.1875)">
      <g id="Group-2">
        <g id="Combined-Shape">
          <use xlink:href="#path_1" fill="none" stroke="#171932" stroke-width="2.8" />
          <use stroke="none" fill="#FFFFFF" xlink:href="#path_1" />
        </g>
        <g id="Rectangle">
          <use xlink:href="#path_2" fill="none" stroke="#171932" stroke-width="2.8" />
          <use stroke="none" fill="#FFFFFF" xlink:href="#path_2" />
        </g>
        <g id="Rectangle-Copy">
          <use xlink:href="#path_3" fill="none" stroke="#171932" stroke-width="2.8" />
          <use stroke="none" fill="#FFFFFF" xlink:href="#path_3" />
        </g>
      </g>
    </g>
    <g id="settings-cogwheel-button" transform="translate(13.8125 12.75)">
      <path d="M14.3881 8.22235C14.3881 8.55124 14.3046 8.79791 14.3046 9.04458L16.2242 10.3602C16.3911 10.4424 16.3911 10.6891 16.3077 10.8535L14.6385 13.7313C14.555 13.8958 14.3046 13.978 14.1377 13.8958L12.0511 13.0736C11.6338 13.4025 11.1331 13.6491 10.6323 13.8958L10.2985 16.0336C10.2985 16.198 10.0481 16.3625 9.88115 16.3625L6.5427 16.3625C6.29232 16.3625 6.1254 16.1981 6.1254 16.0336L5.79156 13.8958C5.29079 13.6491 4.79002 13.4025 4.37272 13.0736L2.28619 13.8958C2.03577 13.978 1.86889 13.8958 1.78542 13.8136L0.116203 10.9358C0.0327422 10.7713 0.0327422 10.6069 0.199664 10.4424L1.95235 9.04458C1.86889 8.79791 1.86889 8.55124 1.86889 8.22235C1.86889 7.89345 1.95235 7.64678 1.95235 7.40011L0.199664 6.08454C0.0327422 5.92009 -0.0507189 5.67342 0.0327422 5.5912L1.70196 2.71337C1.86892 2.54893 2.03584 2.4667 2.28622 2.54893L4.28929 3.37116C4.79006 3.04227 5.20736 2.71337 5.70813 2.54893L6.04197 0.328894C6.04197 0.164447 6.29232 0 6.45928 0L9.79772 0C9.96461 0 10.215 0.164447 10.1316 0.411117L10.4654 2.54893C10.9662 2.7956 11.4669 3.04227 11.8842 3.37116L13.9708 2.54893C14.2212 2.4667 14.3881 2.54893 14.4715 2.63115L16.1408 5.50897C16.2242 5.67342 16.2242 5.83787 16.0573 6.00231L14.3046 7.40011C14.3881 7.64678 14.3881 7.89345 14.3881 8.22235ZM5.20736 8.22235C5.20736 9.78459 6.54274 11.1002 8.1285 11.1002C9.71426 11.1002 11.0496 9.78459 11.0496 8.22235C11.0496 6.6601 9.71426 5.34452 8.1285 5.34452C6.54274 5.34452 5.20736 6.6601 5.20736 8.22235Z" transform="matrix(0.8660254 -0.5 0.5 0.8660254 0.5117052 8.692956)" id="Shape" fill="#FFFFFF" fill-rule="evenodd" stroke="#171932" stroke-width="1.4" />
    </g>
  </g>
</svg>