<?xml version="1.0" encoding="utf-8"?>
<svg width="34px" height="34px" viewBox="0 0 34 34" version="1.1" xmlns:xlink="http://www.w3.org/1999/xlink" xmlns="http://www.w3.org/2000/svg">
  <desc>Created with Lunacy</desc>
  <defs>
    <path d="M12.001 0L5.999 0Q5.85173 0 5.70464 0.00722606Q5.55755 0.0144521 5.411 0.0288868Q5.26444 0.0433215 5.11876 0.0649301Q4.97309 0.0865387 4.82865 0.115269Q4.68422 0.143999 4.54136 0.179782Q4.39851 0.215565 4.25758 0.258315Q4.11666 0.301064 3.978 0.350677Q3.83934 0.40029 3.70328 0.456647Q3.56722 0.513003 3.4341 0.575968Q3.30097 0.638933 3.17109 0.708354Q3.04121 0.777776 2.9149 0.853486Q2.78858 0.929196 2.66613 1.01101Q2.54369 1.09283 2.4254 1.18056Q2.30711 1.26828 2.19327 1.36171Q2.07944 1.45514 1.97032 1.55403Q1.8612 1.65293 1.75707 1.75707Q1.65293 1.8612 1.55403 1.97032Q1.45514 2.07944 1.36171 2.19327Q1.26829 2.30711 1.18056 2.4254Q1.09283 2.54369 1.01101 2.66613Q0.929196 2.78858 0.853486 2.9149Q0.777776 3.04121 0.708354 3.17109Q0.638933 3.30097 0.575968 3.4341Q0.513003 3.56722 0.456647 3.70328Q0.40029 3.83934 0.350677 3.978Q0.301064 4.11666 0.258315 4.25758Q0.215565 4.39851 0.179782 4.54136Q0.143999 4.68422 0.115269 4.82865Q0.0865387 4.97309 0.0649301 5.11876Q0.0433215 5.26444 0.0288868 5.411Q0.0144521 5.55755 0.00722606 5.70464Q0 5.85173 0 5.999L0 9.001Q0 9.14827 0.00722606 9.29536Q0.0144521 9.44245 0.0288868 9.589Q0.0433215 9.73556 0.0649301 9.88124Q0.0865387 10.0269 0.115269 10.1713Q0.143999 10.3158 0.179782 10.4586Q0.215565 10.6015 0.258315 10.7424Q0.301064 10.8833 0.350677 11.022Q0.40029 11.1607 0.456647 11.2967Q0.513003 11.4328 0.575968 11.5659Q0.638933 11.699 0.708354 11.8289Q0.777776 11.9588 0.853486 12.0851Q0.929196 12.2114 1.01101 12.3339Q1.09283 12.4563 1.18056 12.5746Q1.26828 12.6929 1.36171 12.8067Q1.45514 12.9206 1.55403 13.0297Q1.65293 13.1388 1.75707 13.2429Q1.8612 13.3471 1.97032 13.446Q2.07944 13.5449 2.19327 13.6383Q2.30711 13.7317 2.4254 13.8194Q2.54369 13.9072 2.66613 13.989Q2.78858 14.0708 2.9149 14.1465Q3.04121 14.2222 3.17109 14.2916Q3.30097 14.3611 3.4341 14.424Q3.56722 14.487 3.70328 14.5434Q3.83934 14.5997 3.978 14.6493Q4.11666 14.6989 4.25758 14.7417Q4.39851 14.7844 4.54136 14.8202Q4.68422 14.856 4.82865 14.8847Q4.97309 14.9135 5.11876 14.9351Q5.26444 14.9567 5.411 14.9711Q5.55755 14.9855 5.70464 14.9928Q5.85173 15 5.999 15L11 15L15 17L15 14.1966Q15.3406 14 15.6526 13.7606Q15.9646 13.5213 16.2426 13.2432Q16.5207 12.9652 16.7601 12.6532Q16.9995 12.3413 17.1961 12.0007Q17.3928 11.6602 17.5433 11.2969Q17.6938 10.9336 17.7956 10.5538Q17.8973 10.174 17.9487 9.7841Q18 9.39423 18 9.001L18 5.999Q18 5.85173 17.9928 5.70464Q17.9855 5.55755 17.9711 5.411Q17.9567 5.26444 17.9351 5.11876Q17.9135 4.97309 17.8847 4.82865Q17.856 4.68422 17.8202 4.54136Q17.7844 4.39851 17.7417 4.25758Q17.6989 4.11666 17.6493 3.978Q17.5997 3.83934 17.5434 3.70328Q17.487 3.56722 17.424 3.4341Q17.3611 3.30097 17.2916 3.17109Q17.2222 3.04121 17.1465 2.9149Q17.0708 2.78858 16.989 2.66613Q16.9072 2.54369 16.8194 2.4254Q16.7317 2.30711 16.6383 2.19327Q16.5449 2.07944 16.446 1.97032Q16.3471 1.8612 16.2429 1.75707Q16.1388 1.65293 16.0297 1.55403Q15.9206 1.45514 15.8067 1.36171Q15.6929 1.26829 15.5746 1.18056Q15.4563 1.09283 15.3339 1.01101Q15.2114 0.929196 15.0851 0.853486Q14.9588 0.777776 14.8289 0.708354Q14.699 0.638933 14.5659 0.575968Q14.4328 0.513003 14.2967 0.456647Q14.1607 0.40029 14.022 0.350677Q13.8833 0.301064 13.7424 0.258315Q13.6015 0.215565 13.4586 0.179782Q13.3158 0.143999 13.1713 0.115269Q13.0269 0.0865387 12.8812 0.0649301Q12.7356 0.0433215 12.589 0.0288868Q12.4424 0.0144521 12.2954 0.00722606Q12.1483 0 12.001 0Z" id="path_1" />
  </defs>
  <g id="icon-Group" style="mix-blend-mode: luminosity;">
    <g id="Navigation-/-Icons-/-Results" transform="translate(1 1)">
      <path d="M11.999 0L20.001 0Q20.2956 0 20.5898 0.0144533Q20.884 0.0289066 21.1771 0.0577785Q21.4702 0.0866503 21.7616 0.129871Q22.053 0.173092 22.3419 0.230557Q22.6308 0.288023 22.9165 0.359595Q23.2022 0.431167 23.4841 0.516673Q23.766 0.602179 24.0433 0.701413Q24.3207 0.800647 24.5928 0.913369Q24.865 1.02609 25.1312 1.15203Q25.3975 1.27797 25.6573 1.41683Q25.9171 1.55568 26.1697 1.70711Q26.4224 1.85855 26.6673 2.0222Q26.9122 2.18584 27.1488 2.36131Q27.3854 2.53678 27.6131 2.72365Q27.8408 2.91051 28.059 3.10833Q28.2773 3.30614 28.4856 3.51443Q28.6939 3.72271 28.8917 3.94096Q29.0895 4.15922 29.2763 4.38691Q29.4632 4.61461 29.6387 4.8512Q29.8142 5.0878 29.9778 5.33271Q30.1414 5.57763 30.2929 5.83028Q30.4443 6.08293 30.5832 6.34271Q30.722 6.60249 30.848 6.86877Q30.9739 7.13504 31.0866 7.40718Q31.1993 7.67932 31.2986 7.95666Q31.3978 8.234 31.4833 8.51587Q31.5688 8.79775 31.6404 9.08348Q31.712 9.36921 31.7694 9.65811Q31.8269 9.94701 31.8701 10.2384Q31.9134 10.5298 31.9422 10.8229Q31.9711 11.116 31.9855 11.4102Q32 11.7044 32 11.999L32 20.001Q32 20.2956 31.9855 20.5898Q31.9711 20.884 31.9422 21.1771Q31.9133 21.4702 31.8701 21.7616Q31.8269 22.053 31.7694 22.3419Q31.712 22.6308 31.6404 22.9165Q31.5688 23.2022 31.4833 23.4841Q31.3978 23.766 31.2986 24.0433Q31.1993 24.3207 31.0866 24.5928Q30.9739 24.865 30.848 25.1312Q30.722 25.3975 30.5832 25.6573Q30.4443 25.9171 30.2929 26.1697Q30.1414 26.4224 29.9778 26.6673Q29.8142 26.9122 29.6387 27.1488Q29.4632 27.3854 29.2764 27.6131Q29.0895 27.8408 28.8917 28.059Q28.6939 28.2773 28.4856 28.4856Q28.2773 28.6939 28.059 28.8917Q27.8408 29.0895 27.6131 29.2763Q27.3854 29.4632 27.1488 29.6387Q26.9122 29.8142 26.6673 29.9778Q26.4224 30.1414 26.1697 30.2929Q25.9171 30.4443 25.6573 30.5832Q25.3975 30.722 25.1312 30.848Q24.865 30.9739 24.5928 31.0866Q24.3207 31.1993 24.0433 31.2986Q23.766 31.3978 23.4841 31.4833Q23.2023 31.5688 22.9165 31.6404Q22.6308 31.712 22.3419 31.7694Q22.053 31.8269 21.7616 31.8701Q21.4702 31.9134 21.1771 31.9422Q20.884 31.9711 20.5898 31.9855Q20.2956 32 20.001 32L11.999 32Q11.7044 32 11.4102 31.9855Q11.116 31.9711 10.8229 31.9422Q10.5298 31.9133 10.2384 31.8701Q9.94701 31.8269 9.65811 31.7694Q9.36921 31.712 9.08348 31.6404Q8.79775 31.5688 8.51587 31.4833Q8.234 31.3978 7.95666 31.2986Q7.67932 31.1993 7.40718 31.0866Q7.13504 30.9739 6.86877 30.848Q6.60249 30.722 6.34271 30.5832Q6.08293 30.4443 5.83028 30.2929Q5.57763 30.1414 5.33271 29.9778Q5.0878 29.8142 4.8512 29.6387Q4.61461 29.4632 4.38691 29.2764Q4.15922 29.0895 3.94096 28.8917Q3.72271 28.6939 3.51443 28.4856Q3.30614 28.2773 3.10833 28.059Q2.91051 27.8408 2.72365 27.6131Q2.53678 27.3854 2.36131 27.1488Q2.18584 26.9122 2.0222 26.6673Q1.85855 26.4224 1.70711 26.1697Q1.55568 25.9171 1.41683 25.6573Q1.27797 25.3975 1.15203 25.1312Q1.02609 24.865 0.913369 24.5928Q0.800647 24.3207 0.701413 24.0433Q0.602179 23.766 0.516673 23.4841Q0.431167 23.2023 0.359595 22.9165Q0.288023 22.6308 0.230557 22.3419Q0.173092 22.053 0.129871 21.7616Q0.0866503 21.4702 0.0577785 21.1771Q0.0289066 20.884 0.0144533 20.5898Q0 20.2956 0 20.001L0 11.999Q0 11.7044 0.0144533 11.4102Q0.0289066 11.116 0.0577785 10.8229Q0.0866503 10.5298 0.129871 10.2384Q0.173092 9.94701 0.230557 9.65811Q0.288023 9.36921 0.359595 9.08348Q0.431167 8.79775 0.516673 8.51587Q0.602179 8.234 0.701413 7.95666Q0.800647 7.67932 0.913369 7.40718Q1.02609 7.13504 1.15203 6.86877Q1.27797 6.60249 1.41683 6.34271Q1.55568 6.08293 1.70711 5.83028Q1.85855 5.57763 2.0222 5.33271Q2.18584 5.0878 2.36131 4.8512Q2.53678 4.61461 2.72365 4.38691Q2.91051 4.15922 3.10833 3.94096Q3.30614 3.72271 3.51443 3.51443Q3.72271 3.30614 3.94096 3.10833Q4.15922 2.91051 4.38691 2.72365Q4.61461 2.53678 4.8512 2.36131Q5.0878 2.18584 5.33271 2.0222Q5.57763 1.85855 5.83028 1.70711Q6.08293 1.55568 6.34271 1.41683Q6.60249 1.27797 6.86877 1.15203Q7.13504 1.02609 7.40718 0.913369Q7.67932 0.800647 7.95666 0.701413Q8.234 0.602179 8.51587 0.516673Q8.79775 0.431167 9.08348 0.359595Q9.36921 0.288023 9.65811 0.230557Q9.94701 0.173092 10.2384 0.129871Q10.5298 0.0866503 10.8229 0.0577785Q11.116 0.0289066 11.4102 0.0144533Q11.7044 0 11.999 0Z" id="Icons-/-bg" fill="#E9ECF0" fill-opacity="0" stroke="none" />
      <g id="chat" transform="translate(2 3)">
        <g id="Combined-Shape">
          <use xlink:href="#path_1" fill="none" stroke="#171932" stroke-width="2.8" />
          <use stroke="none" fill="#FFFFFF" xlink:href="#path_1" fill-rule="evenodd" />
        </g>
        <path d="M2 4C3.10457 4 4 3.10457 4 2C4 0.895431 3.10457 0 2 0C0.895431 0 0 0.895431 0 2C0 3.10457 0.895431 4 2 4Z" transform="translate(3 5)" id="Oval" fill="#171932" stroke="none" />
        <path d="M0.999 0L5.001 0Q5.09939 0 5.19589 0.0191955Q5.2924 0.038391 5.3833 0.0760443Q5.4742 0.113698 5.55601 0.168362Q5.63782 0.223026 5.7074 0.2926Q5.77697 0.362175 5.83164 0.443985Q5.8863 0.525796 5.92395 0.616699Q5.96161 0.707602 5.9808 0.804105Q6 0.900607 6 0.999L6 1.001Q6 1.09939 5.9808 1.1959Q5.96161 1.2924 5.92395 1.3833Q5.8863 1.4742 5.83164 1.55601Q5.77697 1.63783 5.7074 1.7074Q5.63782 1.77697 5.55601 1.83164Q5.4742 1.8863 5.3833 1.92396Q5.2924 1.96161 5.19589 1.9808Q5.09939 2 5.001 2L0.999 2Q0.900607 2 0.804105 1.9808Q0.707602 1.96161 0.616699 1.92396Q0.525796 1.8863 0.443985 1.83164Q0.362175 1.77697 0.2926 1.7074Q0.223026 1.63783 0.168362 1.55601Q0.113698 1.4742 0.0760443 1.3833Q0.038391 1.2924 0.0191955 1.1959Q0 1.09939 0 1.001L0 0.999Q0 0.900607 0.0191955 0.804105Q0.038391 0.707602 0.0760443 0.616699Q0.113698 0.525796 0.168362 0.443985Q0.223026 0.362175 0.2926 0.2926Q0.362175 0.223026 0.443985 0.168362Q0.525796 0.113698 0.616699 0.0760443Q0.707602 0.038391 0.804105 0.0191955Q0.900607 0 0.999 0Z" transform="translate(9 6)" id="Rectangle" fill="#171932" stroke="none" />
      </g>
      <g id="chat-copy" transform="matrix(-1 0 0 1 30 12)">
        <g id="Combined-Shape">
          <use xlink:href="#path_1" fill="none" stroke="#171932" stroke-width="2.8" />
          <use stroke="none" fill="#FFFFFF" xlink:href="#path_1" fill-rule="evenodd" />
        </g>
        <path d="M0.999 0L9.001 0Q9.09939 0 9.1959 0.0191955Q9.2924 0.038391 9.3833 0.0760443Q9.4742 0.113698 9.55602 0.168362Q9.63783 0.223026 9.7074 0.2926Q9.77697 0.362175 9.83164 0.443985Q9.8863 0.525796 9.92395 0.616699Q9.96161 0.707602 9.9808 0.804105Q10 0.900607 10 0.999L10 1.001Q10 1.09939 9.9808 1.1959Q9.96161 1.2924 9.92395 1.3833Q9.8863 1.4742 9.83164 1.55601Q9.77697 1.63783 9.7074 1.7074Q9.63783 1.77697 9.55602 1.83164Q9.4742 1.8863 9.3833 1.92396Q9.2924 1.96161 9.1959 1.9808Q9.09939 2 9.001 2L0.999 2Q0.900607 2 0.804105 1.9808Q0.707602 1.96161 0.616699 1.92396Q0.525796 1.8863 0.443985 1.83164Q0.362175 1.77697 0.2926 1.7074Q0.223026 1.63783 0.168362 1.55601Q0.113698 1.4742 0.0760443 1.3833Q0.038391 1.2924 0.0191955 1.1959Q0 1.09939 0 1.001L0 0.999Q0 0.900607 0.0191955 0.804105Q0.038391 0.707602 0.0760443 0.616699Q0.113698 0.525796 0.168362 0.443985Q0.223026 0.362175 0.2926 0.2926Q0.362175 0.223026 0.443985 0.168362Q0.525796 0.113698 0.616699 0.0760443Q0.707602 0.038391 0.804105 0.0191955Q0.900607 0 0.999 0Z" transform="translate(4 5)" id="Rectangle" fill="#171932" stroke="none" />
        <path d="M0.999 0L9.001 0Q9.09939 0 9.1959 0.0191955Q9.2924 0.038391 9.3833 0.0760443Q9.4742 0.113698 9.55602 0.168362Q9.63783 0.223026 9.7074 0.2926Q9.77697 0.362175 9.83164 0.443985Q9.8863 0.525796 9.92395 0.616699Q9.96161 0.707602 9.9808 0.804105Q10 0.900607 10 0.999L10 1.001Q10 1.09939 9.9808 1.1959Q9.96161 1.2924 9.92395 1.3833Q9.8863 1.4742 9.83164 1.55601Q9.77697 1.63783 9.7074 1.7074Q9.63783 1.77697 9.55602 1.83164Q9.4742 1.8863 9.3833 1.92396Q9.2924 1.96161 9.1959 1.9808Q9.09939 2 9.001 2L0.999 2Q0.900607 2 0.804105 1.9808Q0.707602 1.96161 0.616699 1.92396Q0.525796 1.8863 0.443985 1.83164Q0.362175 1.77697 0.2926 1.7074Q0.223026 1.63783 0.168362 1.55601Q0.113698 1.4742 0.0760443 1.3833Q0.038391 1.2924 0.0191955 1.1959Q0 1.09939 0 1.001L0 0.999Q0 0.900607 0.0191955 0.804105Q0.038391 0.707602 0.0760443 0.616699Q0.113698 0.525796 0.168362 0.443985Q0.223026 0.362175 0.2926 0.2926Q0.362175 0.223026 0.443985 0.168362Q0.525796 0.113698 0.616699 0.0760443Q0.707602 0.038391 0.804105 0.0191955Q0.900607 0 0.999 0Z" transform="translate(4 9)" id="Rectangle-Copy" fill="#171932" stroke="none" />
      </g>
    </g>
  </g>
</svg>