<?xml version="1.0" encoding="utf-8"?>
<svg width="34px" height="34px" viewBox="0 0 34 34" version="1.1" xmlns:xlink="http://www.w3.org/1999/xlink" xmlns="http://www.w3.org/2000/svg">
  <desc>Created with Lunacy</desc>
  <defs>
    <path d="M7.96775 0L9.03225 0Q9.22785 0 9.42321 0.0095975Q9.61857 0.019195 9.81323 0.0383669Q10.0079 0.0575388 10.2014 0.0862389Q10.3948 0.114939 10.5867 0.153098Q10.7785 0.191257 10.9683 0.238783Q11.158 0.28631 11.3452 0.343089Q11.5323 0.399867 11.7165 0.465762Q11.9007 0.531657 12.0814 0.606509Q12.2621 0.681361 12.4389 0.764989Q12.6157 0.848618 12.7882 0.940822Q12.9607 1.03303 13.1285 1.13358Q13.2963 1.23414 13.4589 1.34281Q13.6215 1.45148 13.7786 1.56799Q13.9357 1.68451 14.0869 1.8086Q14.2381 1.93268 14.3831 2.06404Q14.528 2.19539 14.6663 2.3337Q14.8046 2.47201 14.936 2.61694Q15.0673 2.76186 15.1914 2.91306Q15.3155 3.06426 15.432 3.22137Q15.5485 3.37847 15.6572 3.54111Q15.7659 3.70374 15.8664 3.87151Q15.967 4.03928 16.0592 4.21178Q16.1514 4.38428 16.235 4.5611Q16.3186 4.73792 16.3935 4.91862Q16.4683 5.09933 16.5342 5.2835Q16.6001 5.46766 16.6569 5.65483Q16.7137 5.84201 16.7612 6.03174Q16.8087 6.22148 16.8469 6.41332Q16.8851 6.60516 16.9138 6.79864Q16.9425 6.99212 16.9616 7.18677Q16.9808 7.38143 16.9904 7.57679Q17 7.77215 17 7.96775L17 13.9385Q17 14.0367 16.9904 14.1344Q16.9807 14.2322 16.9616 14.3285Q16.9424 14.4248 16.9139 14.5188Q16.8854 14.6128 16.8478 14.7035Q16.8103 14.7942 16.764 14.8808Q16.7177 14.9674 16.6631 15.0491Q16.6085 15.1307 16.5462 15.2067Q16.4839 15.2826 16.4145 15.352Q16.3451 15.4214 16.2692 15.4837Q16.1932 15.546 16.1116 15.6006Q16.0299 15.6552 15.9433 15.7015Q15.8567 15.7478 15.766 15.7853Q15.6753 15.8229 15.5813 15.8514Q15.4873 15.8799 15.391 15.8991Q15.2947 15.9182 15.1969 15.9279Q15.0992 15.9375 15.001 15.9375L1.999 15.9375Q1.9008 15.9375 1.80306 15.9279Q1.70533 15.9182 1.60901 15.8991Q1.5127 15.8799 1.41872 15.8514Q1.32474 15.8229 1.23402 15.7853Q1.14329 15.7478 1.05668 15.7015Q0.970069 15.6552 0.888415 15.6006Q0.806761 15.546 0.730848 15.4837Q0.654935 15.4214 0.585494 15.352Q0.516052 15.2826 0.453752 15.2067Q0.391452 15.1307 0.336892 15.0491Q0.282333 14.9674 0.236039 14.8808Q0.189746 14.7942 0.152165 14.7035Q0.114584 14.6128 0.0860763 14.5188Q0.057569 14.4248 0.0384102 14.3285Q0.0192515 14.2322 0.00962573 14.1344Q0 14.0367 0 13.9385L0 7.96775Q0 7.77215 0.0095975 7.57679Q0.019195 7.38143 0.0383669 7.18677Q0.0575388 6.99212 0.0862389 6.79864Q0.114939 6.60516 0.153098 6.41332Q0.191257 6.22148 0.238783 6.03174Q0.28631 5.84201 0.343089 5.65483Q0.399867 5.46766 0.465762 5.28349Q0.531657 5.09933 0.606509 4.91862Q0.681361 4.73792 0.764989 4.5611Q0.848618 4.38428 0.940822 4.21178Q1.03303 4.03928 1.13358 3.87151Q1.23414 3.70374 1.34281 3.54111Q1.45148 3.37847 1.56799 3.22137Q1.68451 3.06426 1.8086 2.91306Q1.93268 2.76186 2.06404 2.61694Q2.19539 2.47201 2.3337 2.3337Q2.47201 2.19539 2.61694 2.06404Q2.76186 1.93268 2.91306 1.8086Q3.06426 1.68451 3.22137 1.56799Q3.37847 1.45148 3.54111 1.34281Q3.70374 1.23414 3.87151 1.13358Q4.03928 1.03303 4.21178 0.940822Q4.38428 0.848618 4.5611 0.764989Q4.73792 0.681361 4.91862 0.606509Q5.09933 0.531657 5.2835 0.465762Q5.46766 0.399867 5.65483 0.343089Q5.84201 0.28631 6.03174 0.238783Q6.22148 0.191257 6.41332 0.153098Q6.60516 0.114939 6.79864 0.0862388Q6.99212 0.0575388 7.18677 0.0383669Q7.38143 0.019195 7.57679 0.0095975Q7.77215 0 7.96775 0L7.96775 0Z" transform="translate(4.25 0)" id="path_1" />
    <path d="M2.999 0L11.876 0Q12.0233 0 12.17 0.014441Q12.3166 0.028882 12.4611 0.0576249Q12.6056 0.0863679 12.7466 0.129136Q12.8876 0.171904 13.0237 0.228285Q13.1598 0.284667 13.2897 0.354118Q13.4197 0.42357 13.5422 0.505423Q13.6647 0.587276 13.7785 0.680742Q13.8924 0.774208 13.9966 0.878387Q14.1008 0.982566 14.1943 1.09645Q14.2877 1.21034 14.3696 1.33284Q14.4514 1.45535 14.5209 1.58528Q14.5903 1.71522 14.6467 1.85133Q14.7031 1.98745 14.7459 2.12844Q14.7886 2.26942 14.8174 2.41392Q14.8461 2.55842 14.8606 2.70505Q14.875 2.85167 14.875 2.999L14.875 4.251Q14.875 4.35531 14.8699 4.45949Q14.8648 4.56367 14.8545 4.66748Q14.8443 4.77128 14.829 4.87446Q14.8137 4.97764 14.7934 5.07994Q14.773 5.18224 14.7477 5.28342Q14.7223 5.3846 14.692 5.48442Q14.6618 5.58423 14.6266 5.68244Q14.5915 5.78065 14.5516 5.87702Q14.5116 5.97339 14.467 6.06768Q14.4225 6.16197 14.3733 6.25396Q14.3241 6.34595 14.2705 6.43542Q14.2169 6.52489 14.1589 6.61162Q14.101 6.69835 14.0388 6.78213Q13.9767 6.86591 13.9105 6.94654Q13.8443 7.02717 13.7743 7.10445Q13.7043 7.18174 13.6305 7.2555Q13.5567 7.32925 13.4795 7.3993Q13.4022 7.46935 13.3215 7.53552Q13.2409 7.60169 13.1571 7.66383Q13.0733 7.72596 12.9866 7.78391Q12.8999 7.84186 12.8104 7.89549Q12.721 7.94911 12.629 7.99828Q12.537 8.04745 12.4427 8.09205Q12.3484 8.13665 12.252 8.17656Q12.1557 8.21648 12.0574 8.25162Q11.9592 8.28676 11.8594 8.31704Q11.7596 8.34732 11.6584 8.37266Q11.5572 8.39801 11.4549 8.41836Q11.3526 8.43871 11.2495 8.45401Q11.1463 8.46932 11.0425 8.47954Q10.9387 8.48976 10.8345 8.49488Q10.7303 8.5 10.626 8.5L4.249 8.5Q4.14469 8.5 4.04051 8.49488Q3.93633 8.48976 3.83253 8.47954Q3.72872 8.46932 3.62554 8.45401Q3.52236 8.43871 3.42006 8.41836Q3.31776 8.39801 3.21658 8.37266Q3.1154 8.34732 3.01558 8.31704Q2.91576 8.28676 2.81755 8.25162Q2.71934 8.21648 2.62298 8.17656Q2.52661 8.13665 2.43232 8.09205Q2.33803 8.04745 2.24604 7.99828Q2.15404 7.94911 2.06458 7.89549Q1.97511 7.84186 1.88838 7.78391Q1.80165 7.72596 1.71787 7.66383Q1.63409 7.60169 1.55346 7.53552Q1.47283 7.46935 1.39555 7.3993Q1.31826 7.32925 1.2445 7.2555Q1.17075 7.18174 1.1007 7.10445Q1.03065 7.02717 0.964479 6.94654Q0.898307 6.86591 0.836171 6.78212Q0.774036 6.69835 0.716086 6.61162Q0.658136 6.52489 0.604511 6.43542Q0.550887 6.34595 0.501717 6.25396Q0.452547 6.16197 0.40795 6.06768Q0.363352 5.97339 0.323436 5.87702Q0.283519 5.78065 0.248379 5.68244Q0.213239 5.58423 0.182961 5.48442Q0.152682 5.3846 0.127337 5.28342Q0.101993 5.18224 0.0816433 5.07994Q0.061294 4.97764 0.045989 4.87446Q0.030684 4.77128 0.0204601 4.66747Q0.0102362 4.56367 0.00511811 4.45949Q0 4.35531 0 4.251L0 2.999Q0 2.85167 0.014441 2.70505Q0.028882 2.55842 0.0576249 2.41392Q0.0863679 2.26942 0.129136 2.12844Q0.171904 1.98745 0.228285 1.85133Q0.284667 1.71522 0.354118 1.58528Q0.42357 1.45535 0.505423 1.33284Q0.587276 1.21034 0.680742 1.09645Q0.774208 0.982566 0.878387 0.878387Q0.982566 0.774208 1.09645 0.680742Q1.21034 0.587276 1.33284 0.505423Q1.45535 0.42357 1.58528 0.354118Q1.71522 0.284667 1.85133 0.228285Q1.98745 0.171904 2.12844 0.129136Q2.26942 0.0863679 2.41392 0.0576249Q2.55842 0.028882 2.70505 0.014441Q2.85167 0 2.999 0Z" transform="translate(5.3125 20.1875)" id="path_2" />
    <path d="M1.0615 0L1.0635 0Q1.11565 0 1.16755 0.00511141Q1.21944 0.0102228 1.27059 0.0203964Q1.32173 0.03057 1.37164 0.0457078Q1.42154 0.0608456 1.46972 0.0808019Q1.5179 0.100758 1.56389 0.125341Q1.60988 0.149923 1.65324 0.178895Q1.6966 0.207867 1.73691 0.240949Q1.77722 0.274032 1.81409 0.310906Q1.85097 0.34778 1.88405 0.388091Q1.91713 0.428403 1.9461 0.471762Q1.97508 0.515122 1.99966 0.561112Q2.02424 0.607103 2.0442 0.655281Q2.06415 0.70346 2.07929 0.753363Q2.09443 0.803265 2.1046 0.854411Q2.11478 0.905558 2.11989 0.957455Q2.125 1.00935 2.125 1.0615L2.125 6.376Q2.125 6.42815 2.11989 6.48005Q2.11478 6.53194 2.1046 6.58309Q2.09443 6.63423 2.07929 6.68414Q2.06415 6.73404 2.0442 6.78222Q2.02424 6.8304 1.99966 6.87639Q1.97508 6.92238 1.9461 6.96574Q1.91713 7.0091 1.88405 7.04941Q1.85097 7.08972 1.81409 7.12659Q1.77722 7.16347 1.73691 7.19655Q1.6966 7.22963 1.65324 7.2586Q1.60988 7.28758 1.56389 7.31216Q1.5179 7.33674 1.46972 7.3567Q1.42154 7.37665 1.37164 7.39179Q1.32173 7.40693 1.27059 7.4171Q1.21944 7.42728 1.16755 7.43239Q1.11565 7.4375 1.0635 7.4375L1.0615 7.4375Q1.00935 7.4375 0.957455 7.43239Q0.905558 7.42728 0.854412 7.4171Q0.803265 7.40693 0.753363 7.39179Q0.70346 7.37665 0.655281 7.3567Q0.607103 7.33674 0.561112 7.31216Q0.515122 7.28758 0.471762 7.2586Q0.428403 7.22963 0.388092 7.19655Q0.34778 7.16347 0.310906 7.12659Q0.274032 7.08972 0.240949 7.04941Q0.207867 7.0091 0.178895 6.96574Q0.149923 6.92238 0.125341 6.87639Q0.100758 6.8304 0.0808019 6.78222Q0.0608456 6.73404 0.0457078 6.68414Q0.03057 6.63423 0.0203964 6.58309Q0.0102228 6.53194 0.00511141 6.48005Q0 6.42815 0 6.376L0 1.0615Q0 1.00935 0.00511141 0.957455Q0.0102228 0.905558 0.0203964 0.854412Q0.03057 0.803265 0.0457078 0.753363Q0.0608456 0.70346 0.0808019 0.655281Q0.100758 0.607103 0.125341 0.561112Q0.149923 0.515122 0.178895 0.471762Q0.207867 0.428403 0.240949 0.388092Q0.274032 0.34778 0.310906 0.310906Q0.34778 0.274032 0.388091 0.240949Q0.428403 0.207867 0.471762 0.178895Q0.515122 0.149923 0.561112 0.125341Q0.607103 0.100758 0.655281 0.0808019Q0.70346 0.0608456 0.753363 0.0457078Q0.803265 0.03057 0.854411 0.0203964Q0.905558 0.0102228 0.957455 0.00511141Q1.00935 0 1.0615 0Z" transform="translate(11.6875 13.8125)" id="path_3" />
    <path d="M1.0615 0L2.125 0L2.125 4.25L1.0615 4.25Q1.00935 4.25 0.957455 4.24489Q0.905558 4.23978 0.854412 4.2296Q0.803265 4.21943 0.753363 4.20429Q0.70346 4.18915 0.655281 4.1692Q0.607103 4.14924 0.561112 4.12466Q0.515122 4.10008 0.471762 4.0711Q0.428403 4.04213 0.388092 4.00905Q0.34778 3.97597 0.310906 3.93909Q0.274032 3.90222 0.240949 3.86191Q0.207867 3.8216 0.178895 3.77824Q0.149923 3.73488 0.125341 3.68889Q0.100758 3.6429 0.0808019 3.59472Q0.0608456 3.54654 0.0457078 3.49664Q0.03057 3.44673 0.0203964 3.39559Q0.0102228 3.34444 0.00511141 3.29255Q0 3.24065 0 3.1885L0 1.0615Q0 1.00935 0.00511141 0.957455Q0.0102228 0.905558 0.0203964 0.854412Q0.03057 0.803265 0.0457078 0.753363Q0.0608456 0.70346 0.0808019 0.655281Q0.100758 0.607103 0.125341 0.561112Q0.149923 0.515122 0.178895 0.471762Q0.207867 0.428403 0.240949 0.388092Q0.274032 0.34778 0.310906 0.310906Q0.34778 0.274032 0.388092 0.240949Q0.428403 0.207867 0.471762 0.178895Q0.515122 0.149923 0.561112 0.125341Q0.607103 0.100758 0.655282 0.0808019Q0.70346 0.0608456 0.753363 0.0457078Q0.803266 0.03057 0.854412 0.0203964Q0.905558 0.0102228 0.957455 0.00511141Q1.00935 0 1.0615 0L1.0615 0Z" transform="translate(5.3125 8.5)" id="path_4" />
    <path d="M1.0615 0L2.125 0L2.125 4.25L1.0615 4.25Q1.00935 4.25 0.957455 4.24489Q0.905558 4.23978 0.854412 4.2296Q0.803265 4.21943 0.753363 4.20429Q0.70346 4.18915 0.655281 4.1692Q0.607103 4.14924 0.561112 4.12466Q0.515122 4.10008 0.471762 4.0711Q0.428403 4.04213 0.388092 4.00905Q0.34778 3.97597 0.310906 3.93909Q0.274032 3.90222 0.240949 3.86191Q0.207867 3.8216 0.178895 3.77824Q0.149923 3.73488 0.125341 3.68889Q0.100758 3.6429 0.0808019 3.59472Q0.0608456 3.54654 0.0457078 3.49664Q0.03057 3.44673 0.0203964 3.39559Q0.0102228 3.34444 0.00511141 3.29255Q0 3.24065 0 3.1885L0 1.0615Q0 1.00935 0.00511141 0.957455Q0.0102228 0.905558 0.0203964 0.854412Q0.03057 0.803265 0.0457078 0.753363Q0.0608456 0.70346 0.0808019 0.655281Q0.100758 0.607103 0.125341 0.561112Q0.149923 0.515122 0.178895 0.471762Q0.207867 0.428403 0.240949 0.388092Q0.274032 0.34778 0.310906 0.310906Q0.34778 0.274032 0.388092 0.240949Q0.428403 0.207867 0.471762 0.178895Q0.515122 0.149923 0.561112 0.125341Q0.607103 0.100758 0.655282 0.0808019Q0.70346 0.0608456 0.753363 0.0457078Q0.803266 0.03057 0.854412 0.0203964Q0.905558 0.0102228 0.957455 0.00511141Q1.00935 0 1.0615 0L1.0615 0Z" transform="matrix(-1 0 0 1 20.1875 8.5)" id="path_5" />
    <path d="M5.3115 0L5.3135 0Q5.44389 0 5.57412 0.00639793Q5.70436 0.0127959 5.83412 0.0255763Q5.96388 0.0383568 6.09286 0.057489Q6.22184 0.0766211 6.34972 0.102059Q6.47761 0.127497 6.60409 0.159179Q6.73057 0.190861 6.85535 0.228711Q6.98012 0.266562 7.10289 0.310489Q7.22566 0.354416 7.34612 0.404314Q7.46659 0.454212 7.58446 0.509961Q7.70233 0.56571 7.81732 0.627175Q7.93232 0.688641 8.04416 0.755674Q8.15599 0.822708 8.26441 0.895149Q8.37282 0.96759 8.47756 1.04526Q8.58229 1.12294 8.68308 1.20565Q8.78387 1.28837 8.88048 1.37594Q8.9771 1.4635 9.0693 1.5557Q9.1615 1.6479 9.24906 1.74451Q9.33663 1.84113 9.41934 1.94192Q9.50206 2.04271 9.57974 2.14744Q9.65741 2.25217 9.72985 2.36059Q9.80229 2.469 9.86932 2.58084Q9.93636 2.69268 9.99782 2.80768Q10.0593 2.92267 10.115 3.04054Q10.1708 3.15841 10.2207 3.27888Q10.2706 3.39934 10.3145 3.52211Q10.3584 3.64488 10.3963 3.76965Q10.4341 3.89443 10.4658 4.02091Q10.4975 4.14739 10.5229 4.27528Q10.5484 4.40316 10.5675 4.53214Q10.5866 4.66112 10.5994 4.79088Q10.6122 4.92064 10.6186 5.05088Q10.625 5.18111 10.625 5.3115L10.625 10.626Q10.625 10.7564 10.6186 10.8866Q10.6122 11.0169 10.5994 11.1466Q10.5866 11.2764 10.5675 11.4054Q10.5484 11.5343 10.5229 11.6622Q10.4975 11.7901 10.4658 11.9166Q10.4341 12.0431 10.3963 12.1678Q10.3584 12.2926 10.3145 12.4154Q10.2706 12.5382 10.2207 12.6586Q10.1708 12.7791 10.115 12.897Q10.0593 13.0148 9.99782 13.1298Q9.93636 13.2448 9.86932 13.3567Q9.80229 13.4685 9.72985 13.5769Q9.65741 13.6853 9.57974 13.7901Q9.50206 13.8948 9.41934 13.9956Q9.33663 14.0964 9.24906 14.193Q9.1615 14.2896 9.0693 14.3818Q8.9771 14.474 8.88048 14.5616Q8.78387 14.6491 8.68308 14.7318Q8.58229 14.8146 8.47756 14.8922Q8.37282 14.9699 8.26441 15.0423Q8.15599 15.1148 8.04416 15.1818Q7.93232 15.2489 7.81732 15.3103Q7.70233 15.3718 7.58446 15.4275Q7.46659 15.4833 7.34612 15.5332Q7.22566 15.5831 7.10289 15.627Q6.98012 15.6709 6.85535 15.7088Q6.73057 15.7466 6.60409 15.7783Q6.47761 15.81 6.34972 15.8354Q6.22184 15.8609 6.09286 15.88Q5.96388 15.8991 5.83412 15.9119Q5.70436 15.9247 5.57412 15.9311Q5.44389 15.9375 5.3135 15.9375L5.3115 15.9375Q5.18111 15.9375 5.05088 15.9311Q4.92064 15.9247 4.79088 15.9119Q4.66112 15.8991 4.53214 15.88Q4.40316 15.8609 4.27528 15.8354Q4.14739 15.81 4.02091 15.7783Q3.89443 15.7466 3.76965 15.7088Q3.64488 15.6709 3.52211 15.627Q3.39934 15.5831 3.27888 15.5332Q3.15841 15.4833 3.04054 15.4275Q2.92267 15.3718 2.80768 15.3103Q2.69268 15.2489 2.58084 15.1818Q2.469 15.1148 2.36059 15.0423Q2.25217 14.9699 2.14744 14.8922Q2.04271 14.8146 1.94192 14.7318Q1.84113 14.6491 1.74451 14.5616Q1.6479 14.474 1.5557 14.3818Q1.4635 14.2896 1.37594 14.193Q1.28837 14.0964 1.20565 13.9956Q1.12294 13.8948 1.04526 13.7901Q0.96759 13.6853 0.895149 13.5769Q0.822708 13.4685 0.755674 13.3567Q0.688641 13.2448 0.627175 13.1298Q0.56571 13.0148 0.509961 12.897Q0.454212 12.7791 0.404314 12.6586Q0.354416 12.5382 0.310489 12.4154Q0.266562 12.2926 0.228711 12.1678Q0.190861 12.0431 0.159179 11.9166Q0.127497 11.7901 0.102059 11.6622Q0.0766211 11.5343 0.057489 11.4054Q0.0383568 11.2764 0.0255763 11.1466Q0.0127959 11.0169 0.00639793 10.8866Q0 10.7564 0 10.626L0 5.3115Q0 5.18111 0.00639793 5.05088Q0.0127959 4.92064 0.0255763 4.79088Q0.0383568 4.66112 0.057489 4.53214Q0.0766211 4.40316 0.102059 4.27528Q0.127497 4.14739 0.159179 4.02091Q0.190861 3.89443 0.228711 3.76965Q0.266562 3.64488 0.310489 3.52211Q0.354416 3.39934 0.404314 3.27888Q0.454212 3.15841 0.509961 3.04054Q0.56571 2.92267 0.627175 2.80768Q0.688641 2.69268 0.755674 2.58084Q0.822708 2.469 0.895149 2.36059Q0.96759 2.25217 1.04526 2.14744Q1.12294 2.04271 1.20565 1.94192Q1.28837 1.84113 1.37594 1.74451Q1.4635 1.6479 1.5557 1.5557Q1.6479 1.4635 1.74451 1.37594Q1.84113 1.28837 1.94192 1.20565Q2.04271 1.12294 2.14744 1.04526Q2.25217 0.96759 2.36059 0.895149Q2.469 0.822708 2.58084 0.755674Q2.69268 0.688641 2.80768 0.627175Q2.92267 0.56571 3.04054 0.509961Q3.15841 0.454212 3.27888 0.404314Q3.39934 0.354416 3.52211 0.310489Q3.64488 0.266562 3.76965 0.228711Q3.89443 0.190861 4.02091 0.159179Q4.14739 0.127497 4.27528 0.102059Q4.40316 0.0766211 4.53214 0.057489Q4.66112 0.0383568 4.79088 0.0255763Q4.92064 0.0127959 5.05088 0.00639793Q5.18111 0 5.3115 0Z" transform="translate(7.4375 2.125)" id="path_6" />
    <path d="M1.59275 0L3.71975 0Q3.798 0 3.87587 0.00766953Q3.95374 0.0153391 4.03048 0.0306042Q4.10722 0.0458694 4.1821 0.0685833Q4.25698 0.0912971 4.32927 0.121241Q4.40156 0.151185 4.47057 0.18807Q4.53957 0.224955 4.60463 0.268427Q4.66969 0.311898 4.73018 0.361538Q4.79067 0.411177 4.84599 0.466506Q4.90132 0.521834 4.95096 0.58232Q5.0006 0.642806 5.04407 0.707865Q5.08754 0.772925 5.12443 0.841933Q5.16131 0.91094 5.19126 0.983231Q5.2212 1.05552 5.24392 1.1304Q5.26663 1.20528 5.2819 1.28202Q5.29716 1.35876 5.30483 1.43663Q5.3125 1.5145 5.3125 1.59275L5.3125 1.59475Q5.3125 1.673 5.30483 1.75087Q5.29716 1.82874 5.2819 1.90548Q5.26663 1.98222 5.24392 2.0571Q5.2212 2.13198 5.19126 2.20427Q5.16131 2.27656 5.12443 2.34557Q5.08754 2.41457 5.04407 2.47963Q5.0006 2.54469 4.95096 2.60518Q4.90132 2.66567 4.84599 2.72099Q4.79067 2.77632 4.73018 2.82596Q4.66969 2.8756 4.60463 2.91907Q4.53957 2.96254 4.47057 2.99943Q4.40156 3.03632 4.32927 3.06626Q4.25698 3.0962 4.1821 3.11892Q4.10722 3.14163 4.03048 3.1569Q3.95374 3.17216 3.87587 3.17983Q3.798 3.1875 3.71975 3.1875L1.59275 3.1875Q1.5145 3.1875 1.43663 3.17983Q1.35876 3.17216 1.28202 3.1569Q1.20528 3.14163 1.1304 3.11892Q1.05552 3.0962 0.983231 3.06626Q0.91094 3.03632 0.841933 2.99943Q0.772925 2.96254 0.707865 2.91907Q0.642806 2.8756 0.58232 2.82596Q0.521834 2.77632 0.466506 2.72099Q0.411177 2.66567 0.361538 2.60518Q0.311898 2.54469 0.268427 2.47963Q0.224955 2.41457 0.18807 2.34557Q0.151185 2.27656 0.121241 2.20427Q0.0912971 2.13198 0.0685833 2.0571Q0.0458694 1.98222 0.0306042 1.90548Q0.0153391 1.82874 0.00766953 1.75087Q0 1.673 0 1.59475L0 1.59275Q0 1.5145 0.00766953 1.43663Q0.0153391 1.35876 0.0306042 1.28202Q0.0458694 1.20528 0.0685833 1.1304Q0.0912971 1.05552 0.121241 0.983231Q0.151185 0.91094 0.18807 0.841933Q0.224955 0.772925 0.268427 0.707865Q0.311898 0.642806 0.361538 0.58232Q0.411177 0.521834 0.466506 0.466506Q0.521834 0.411177 0.58232 0.361538Q0.642806 0.311898 0.707865 0.268427Q0.772925 0.224955 0.841933 0.18807Q0.91094 0.151185 0.983231 0.121241Q1.05552 0.0912971 1.1304 0.0685833Q1.20528 0.0458694 1.28202 0.0306042Q1.35876 0.0153391 1.43663 0.00766953Q1.5145 0 1.59275 0L1.59275 0Z" transform="translate(18.0625 24.4375)" id="path_7" />
    <path d="M1.59275 0L3.71975 0Q3.798 0 3.87587 0.00766953Q3.95374 0.0153391 4.03048 0.0306042Q4.10722 0.0458694 4.1821 0.0685833Q4.25698 0.0912971 4.32927 0.121241Q4.40156 0.151185 4.47057 0.18807Q4.53957 0.224955 4.60463 0.268427Q4.66969 0.311898 4.73018 0.361538Q4.79067 0.411177 4.84599 0.466506Q4.90132 0.521834 4.95096 0.58232Q5.0006 0.642806 5.04407 0.707865Q5.08754 0.772925 5.12443 0.841933Q5.16131 0.91094 5.19126 0.983231Q5.2212 1.05552 5.24392 1.1304Q5.26663 1.20528 5.2819 1.28202Q5.29716 1.35876 5.30483 1.43663Q5.3125 1.5145 5.3125 1.59275L5.3125 1.59475Q5.3125 1.673 5.30483 1.75087Q5.29716 1.82874 5.2819 1.90548Q5.26663 1.98222 5.24392 2.0571Q5.2212 2.13198 5.19126 2.20427Q5.16131 2.27656 5.12443 2.34557Q5.08754 2.41457 5.04407 2.47963Q5.0006 2.54469 4.95096 2.60518Q4.90132 2.66567 4.84599 2.72099Q4.79067 2.77632 4.73018 2.82596Q4.66969 2.8756 4.60463 2.91907Q4.53957 2.96254 4.47057 2.99943Q4.40156 3.03632 4.32927 3.06626Q4.25698 3.0962 4.1821 3.11892Q4.10722 3.14163 4.03048 3.1569Q3.95374 3.17216 3.87587 3.17983Q3.798 3.1875 3.71975 3.1875L1.59275 3.1875Q1.5145 3.1875 1.43663 3.17983Q1.35876 3.17216 1.28202 3.1569Q1.20528 3.14163 1.1304 3.11892Q1.05552 3.0962 0.983231 3.06626Q0.91094 3.03632 0.841933 2.99943Q0.772925 2.96254 0.707865 2.91907Q0.642806 2.8756 0.58232 2.82596Q0.521834 2.77632 0.466506 2.72099Q0.411177 2.66567 0.361538 2.60518Q0.311898 2.54469 0.268427 2.47963Q0.224955 2.41457 0.18807 2.34557Q0.151185 2.27656 0.121241 2.20427Q0.0912971 2.13198 0.0685833 2.0571Q0.0458694 1.98222 0.0306042 1.90548Q0.0153391 1.82874 0.00766953 1.75087Q0 1.673 0 1.59475L0 1.59275Q0 1.5145 0.00766953 1.43663Q0.0153391 1.35876 0.0306042 1.28202Q0.0458694 1.20528 0.0685833 1.1304Q0.0912971 1.05552 0.121241 0.983231Q0.151185 0.91094 0.18807 0.841933Q0.224955 0.772925 0.268427 0.707865Q0.311898 0.642806 0.361538 0.58232Q0.411177 0.521834 0.466506 0.466506Q0.521834 0.411177 0.58232 0.361538Q0.642806 0.311898 0.707865 0.268427Q0.772925 0.224955 0.841933 0.18807Q0.91094 0.151185 0.983231 0.121241Q1.05552 0.0912971 1.1304 0.0685833Q1.20528 0.0458694 1.28202 0.0306042Q1.35876 0.0153391 1.43663 0.00766953Q1.5145 0 1.59275 0L1.59275 0Z" transform="translate(2.125 24.4375)" id="path_8" />
    <path d="M0.53025 0L24.9697 0Q25.022 0 25.0732 0.0101886Q25.1244 0.0203772 25.1727 0.0403629Q25.2209 0.0603485 25.2643 0.0893632Q25.3078 0.118378 25.3447 0.155307Q25.3816 0.192235 25.4106 0.235659Q25.4396 0.279082 25.4596 0.327332Q25.4796 0.375582 25.4898 0.426803Q25.5 0.478025 25.5 0.53025L25.5 0.53225Q25.5 0.584475 25.4898 0.635697Q25.4796 0.686918 25.4596 0.735168Q25.4396 0.783418 25.4106 0.826841Q25.3816 0.870265 25.3447 0.907193Q25.3078 0.944122 25.2643 0.973137Q25.2209 1.00215 25.1727 1.02214Q25.1244 1.04212 25.0732 1.05231Q25.022 1.0625 24.9697 1.0625L0.53025 1.0625Q0.478025 1.0625 0.426803 1.05231Q0.375582 1.04212 0.327332 1.02214Q0.279082 1.00215 0.235659 0.973137Q0.192235 0.944122 0.155307 0.907193Q0.118378 0.870265 0.0893632 0.826841Q0.0603485 0.783417 0.0403629 0.735168Q0.0203772 0.686918 0.0101886 0.635697Q0 0.584475 0 0.53225L0 0.53025Q0 0.478025 0.0101886 0.426803Q0.0203772 0.375582 0.0403629 0.327332Q0.0603485 0.279082 0.0893632 0.235659Q0.118378 0.192235 0.155307 0.155307Q0.192235 0.118378 0.235659 0.0893632Q0.279082 0.0603485 0.327332 0.0403629Q0.375582 0.0203772 0.426803 0.0101886Q0.478025 0 0.53025 0Z" transform="translate(0 27.625)" id="path_9" />
    <path d="M13.9305 3.42203C13.0372 6.03399 11.3279 6.57716 3.95134 8.50498C-3.42526 10.4328 0.978221 2.0054 5.43049 0.536233C9.88276 -0.932936 14.8238 0.810069 13.9305 3.42203Z" transform="translate(8.5 3.1875)" id="path_10" />
  </defs>
  <g id="icon-Group" style="mix-blend-mode: luminosity;">
    <g id="Group" transform="translate(4.25 3.1875)">
      <g id="Rectangle-Copy">
        <use xlink:href="#path_1" fill="none" stroke="#171932" stroke-width="2.8" />
        <use stroke="none" fill="#FFFFFF" xlink:href="#path_1" />
      </g>
      <g id="Rectangle-Copy-3">
        <use xlink:href="#path_2" fill="none" stroke="#171932" stroke-width="2.8" />
        <use stroke="none" fill="#FFFFFF" xlink:href="#path_2" />
      </g>
      <g id="Rectangle">
        <use xlink:href="#path_3" fill="none" stroke="#171932" stroke-width="2.8" />
        <use stroke="none" fill="#FFFFFF" xlink:href="#path_3" />
      </g>
      <g id="Rectangle-Copy">
        <use xlink:href="#path_4" fill="none" stroke="#171932" stroke-width="2.8" />
        <use stroke="none" fill="#FFFFFF" xlink:href="#path_4" />
      </g>
      <g id="Rectangle-Copy-2">
        <use xlink:href="#path_5" fill="none" stroke="#171932" stroke-width="2.8" />
        <use stroke="none" fill="#FFFFFF" xlink:href="#path_5" />
      </g>
      <g id="Rectangle-Copy">
        <use xlink:href="#path_6" fill="none" stroke="#171932" stroke-width="2.8" />
        <use stroke="none" fill="#FFFFFF" xlink:href="#path_6" />
      </g>
      <g id="Rectangle-Copy-4">
        <use xlink:href="#path_7" fill="none" stroke="#171932" stroke-width="2.8" />
        <use stroke="none" fill="#FFFFFF" xlink:href="#path_7" />
      </g>
      <g id="Rectangle-Copy-5">
        <use xlink:href="#path_8" fill="none" stroke="#171932" stroke-width="2.8" />
        <use stroke="none" fill="#FFFFFF" xlink:href="#path_8" />
      </g>
      <g id="Rectangle-Copy-5">
        <use xlink:href="#path_9" fill="none" stroke="#171932" stroke-width="2.8" />
        <use stroke="none" fill="#FFFFFF" xlink:href="#path_9" />
      </g>
    </g>
    <path d="M0.999 0L5.376 0Q5.47439 0 5.5709 0.0191955Q5.6674 0.038391 5.7583 0.0760443Q5.8492 0.113698 5.93101 0.168362Q6.01283 0.223026 6.0824 0.2926Q6.15197 0.362175 6.20664 0.443985Q6.2613 0.525796 6.29895 0.616699Q6.33661 0.707602 6.3558 0.804105Q6.375 0.900607 6.375 0.999L6.375 1.126Q6.375 1.22439 6.3558 1.3209Q6.33661 1.4174 6.29896 1.5083Q6.2613 1.5992 6.20664 1.68101Q6.15197 1.76283 6.0824 1.8324Q6.01283 1.90197 5.93101 1.95664Q5.8492 2.0113 5.7583 2.04896Q5.6674 2.08661 5.57089 2.1058Q5.47439 2.125 5.376 2.125L0.999 2.125Q0.900607 2.125 0.804105 2.1058Q0.707602 2.08661 0.616699 2.04896Q0.525796 2.0113 0.443985 1.95664Q0.362175 1.90197 0.2926 1.8324Q0.223026 1.76283 0.168362 1.68101Q0.113698 1.5992 0.0760443 1.5083Q0.038391 1.4174 0.0191955 1.3209Q0 1.22439 0 1.126L0 0.999Q0 0.900607 0.0191955 0.804105Q0.038391 0.707602 0.0760443 0.616699Q0.113698 0.525796 0.168362 0.443985Q0.223026 0.362175 0.2926 0.2926Q0.362175 0.223026 0.443985 0.168362Q0.525796 0.113698 0.616699 0.0760443Q0.707602 0.038391 0.804105 0.0191955Q0.900607 0 0.999 0Z" transform="translate(10.625 17)" id="Rectangle" fill="#171932" stroke="none" />
    <g id="Path-3">
      <use xlink:href="#path_10" fill="none" stroke="#171932" stroke-width="2.8" />
      <use stroke="none" fill="#FFFFFF" xlink:href="#path_10" />
    </g>
  </g>
</svg>