<?xml version="1.0" encoding="utf-8"?>
<svg width="34px" height="34px" viewBox="0 0 34 34" version="1.1" xmlns:xlink="http://www.w3.org/1999/xlink" xmlns="http://www.w3.org/2000/svg">
  <desc>Created with Lunacy</desc>
  <defs>
    <path d="M2.999 0L8.6885 0Q8.83583 0 8.98245 0.014441Q9.12908 0.028882 9.27357 0.0576249Q9.41808 0.0863679 9.55906 0.129136Q9.70005 0.171904 9.83617 0.228285Q9.97228 0.284667 10.1022 0.354118Q10.2322 0.42357 10.3547 0.505423Q10.4772 0.587276 10.591 0.680742Q10.7049 0.774208 10.8091 0.878387Q10.9133 0.982566 11.0068 1.09645Q11.1002 1.21034 11.1821 1.33284Q11.2639 1.45535 11.3334 1.58528Q11.4028 1.71522 11.4592 1.85133Q11.5156 1.98745 11.5584 2.12844Q11.6011 2.26942 11.6299 2.41392Q11.6586 2.55842 11.6731 2.70505Q11.6875 2.85167 11.6875 2.999L11.6875 3.1885Q11.6875 3.34504 11.6722 3.50083Q11.6568 3.65662 11.6263 3.81015Q11.5957 3.96369 11.5503 4.11349Q11.5048 4.26329 11.4449 4.40792Q11.385 4.55255 11.3112 4.69061Q11.2374 4.82866 11.1505 4.95882Q11.0635 5.08898 10.9642 5.20999Q10.8649 5.331 10.7542 5.4417Q10.6435 5.55239 10.5225 5.6517Q10.4015 5.75101 10.2713 5.83798Q10.1412 5.92495 10.0031 5.99874Q9.86505 6.07254 9.72042 6.13244Q9.57579 6.19235 9.42599 6.23779Q9.27619 6.28323 9.12265 6.31377Q8.96912 6.34431 8.81333 6.35966Q8.65754 6.375 8.501 6.375L3.1865 6.375Q3.02996 6.375 2.87417 6.35966Q2.71838 6.34431 2.56484 6.31377Q2.41131 6.28323 2.26151 6.23779Q2.11171 6.19235 1.96708 6.13244Q1.82245 6.07254 1.68439 5.99874Q1.54634 5.92495 1.41618 5.83798Q1.28601 5.75101 1.16501 5.6517Q1.044 5.55239 0.933304 5.4417Q0.822612 5.331 0.723302 5.20999Q0.623993 5.08898 0.537022 4.95882Q0.450052 4.82866 0.376258 4.69061Q0.302464 4.55255 0.242558 4.40792Q0.182652 4.26329 0.13721 4.11349Q0.0917677 3.96369 0.0612277 3.81015Q0.0306877 3.65662 0.0153439 3.50083Q0 3.34504 0 3.1885L0 2.999Q0 2.85167 0.014441 2.70505Q0.028882 2.55842 0.0576249 2.41392Q0.0863679 2.26942 0.129136 2.12844Q0.171904 1.98745 0.228285 1.85133Q0.284667 1.71522 0.354118 1.58528Q0.42357 1.45535 0.505423 1.33284Q0.587276 1.21034 0.680742 1.09645Q0.774208 0.982566 0.878387 0.878387Q0.982566 0.774208 1.09645 0.680742Q1.21034 0.587276 1.33284 0.505423Q1.45535 0.42357 1.58528 0.354118Q1.71522 0.284667 1.85133 0.228285Q1.98745 0.171904 2.12844 0.129136Q2.26942 0.0863679 2.41392 0.0576249Q2.55842 0.028882 2.70505 0.014441Q2.85167 0 2.999 0L2.999 0Z" transform="translate(0 11.95313)" id="path_1" />
    <path d="M0.833821 0L0.835821 0Q0.917945 0 0.998492 0.0160216Q1.07904 0.0320433 1.15491 0.0634709Q1.23078 0.0948984 1.29907 0.140524Q1.36735 0.18615 1.42542 0.244221Q1.48349 0.302291 1.52912 0.370575Q1.57474 0.438859 1.60617 0.514732Q1.6376 0.590604 1.65362 0.671151Q1.66964 0.751697 1.66964 0.833821L1.66964 4.7443Q1.66964 4.82643 1.65362 4.90697Q1.6376 4.98752 1.60617 5.06339Q1.57474 5.13927 1.52912 5.20755Q1.48349 5.27583 1.42542 5.3339Q1.36735 5.39197 1.29907 5.4376Q1.23078 5.48323 1.15491 5.51465Q1.07904 5.54608 0.998492 5.5621Q0.917945 5.57812 0.835821 5.57813L0.833821 5.57813Q0.751697 5.57812 0.671151 5.5621Q0.590604 5.54608 0.514732 5.51465Q0.438859 5.48323 0.370575 5.4376Q0.302291 5.39197 0.244221 5.3339Q0.18615 5.27583 0.140524 5.20755Q0.0948984 5.13927 0.0634709 5.06339Q0.0320433 4.98752 0.0160216 4.90697Q0 4.82643 0 4.7443L0 0.833821Q0 0.751697 0.0160216 0.671151Q0.0320433 0.590604 0.0634709 0.514732Q0.0948984 0.438859 0.140524 0.370575Q0.18615 0.302291 0.244221 0.244221Q0.302291 0.18615 0.370575 0.140524Q0.438859 0.0948984 0.514732 0.0634709Q0.590604 0.0320433 0.671151 0.0160216Q0.751697 0 0.833821 0L0.833821 0Z" transform="translate(5.008929 7.171875)" id="path_2" />
    <path d="M0.883398 0L0.88523 0Q0.927211 0 0.968462 0.00779283Q1.00971 0.0155857 1.0488 0.0309005Q1.08789 0.0462152 1.12345 0.0685196Q1.15902 0.090824 1.18982 0.119343Q1.22063 0.147861 1.24561 0.181603Q1.27059 0.215345 1.28886 0.253136Q1.30714 0.290928 1.31809 0.331456Q1.32904 0.371984 1.33227 0.41384L1.60543 3.94999Q1.61157 4.02952 1.60132 4.10864Q1.59107 4.18775 1.56485 4.26309Q1.53863 4.33843 1.49756 4.40682Q1.45648 4.47521 1.40229 4.53375Q1.34809 4.59229 1.28307 4.63851Q1.21805 4.68473 1.14495 4.71667Q1.07185 4.74862 0.993764 4.76493Q0.915676 4.78125 0.835901 4.78125L0.833719 4.78125Q0.754593 4.78125 0.677182 4.76487Q0.599771 4.74849 0.52743 4.71643Q0.455088 4.68437 0.390951 4.63804Q0.326814 4.5917 0.273661 4.53308Q0.220507 4.47447 0.180642 4.40612Q0.140776 4.33777 0.115925 4.26265Q0.0910747 4.18753 0.0823161 4.10889Q0.0735576 4.03025 0.0812707 3.9515L0.427843 0.413115Q0.431962 0.371052 0.443715 0.330455Q0.455467 0.289857 0.474454 0.252098Q0.493441 0.214339 0.519022 0.180694Q0.544602 0.14705 0.57591 0.118659Q0.607218 0.0902673 0.643196 0.0680886Q0.679173 0.0459098 0.718603 0.0306938Q0.758034 0.0154777 0.799583 0.00773887Q0.841133 0 0.883398 0Z" transform="translate(5.008929 14.34375)" id="path_3" />
    <path d="M4.17302 5.66435e-14L4.17519 5.66435e-14Q4.27455 5.66435e-14 4.37378 0.0051247Q4.473 0.0102494 4.57184 0.0204851Q4.67067 0.0307209 4.76884 0.0460405Q4.86701 0.06136 4.96426 0.0817226Q5.06151 0.102085 5.15758 0.127437Q5.25365 0.152788 5.34829 0.183061Q5.44292 0.213334 5.53587 0.248447Q5.62882 0.283561 5.71983 0.323421Q5.81084 0.363282 5.89968 0.407784Q5.98852 0.452286 6.07494 0.501311Q6.16136 0.550335 6.24514 0.603752Q6.32892 0.657169 6.40983 0.714836Q6.49074 0.772503 6.56858 0.834266Q6.64641 0.896029 6.72095 0.961725Q6.79549 1.02742 6.86654 1.09687Q6.9376 1.16633 7.00497 1.23935Q7.07235 1.31238 7.13587 1.38878Q7.19939 1.46518 7.25889 1.54476Q7.31838 1.62434 7.37369 1.70688Q7.42901 1.78942 7.47999 1.8747Q7.53097 1.95998 7.57748 2.04778Q7.624 2.13558 7.66592 2.22566Q7.70785 2.31574 7.74507 2.40787Q7.78229 2.49999 7.81471 2.59391Q7.84713 2.68783 7.87467 2.7833Q7.9022 2.87877 7.92477 2.97553Q7.94735 3.07229 7.9649 3.17009Q7.98245 3.26789 7.99494 3.36646Q8.00742 3.46503 8.01481 3.56411Q8.02219 3.6632 8.02446 3.76253Q8.02672 3.86187 8.02386 3.96118Q8.021 4.0605 8.01301 4.15954L7.78155 7.0318Q7.768 7.19989 7.73888 7.366Q7.70976 7.5321 7.66531 7.69478Q7.62087 7.85745 7.56148 8.01529Q7.5021 8.17313 7.42829 8.32476Q7.35448 8.47638 7.26689 8.62049Q7.1793 8.7646 7.07868 8.89993Q6.97806 9.03526 6.8653 9.16065Q6.75253 9.28604 6.62859 9.4004Q6.50464 9.51475 6.3706 9.61708Q6.23656 9.71941 6.09358 9.80884Q5.9506 9.89826 5.79993 9.97399Q5.64925 10.0497 5.49218 10.1111Q5.33512 10.1725 5.17302 10.219Q5.01092 10.2655 4.8452 10.2968Q4.67948 10.328 4.51158 10.3437Q4.34367 10.3594 4.17503 10.3594L4.17319 10.3594Q4.00455 10.3594 3.83664 10.3437Q3.66873 10.328 3.50301 10.2968Q3.33729 10.2655 3.17519 10.219Q3.0131 10.1725 2.85603 10.1111Q2.69896 10.0497 2.54829 9.97399Q2.39761 9.89826 2.25463 9.80884Q2.11165 9.71941 1.97761 9.61708Q1.84357 9.51475 1.71963 9.4004Q1.59569 9.28604 1.48292 9.16065Q1.37015 9.03526 1.26953 8.89993Q1.16892 8.7646 1.08133 8.62049Q0.993735 8.47638 0.919926 8.32475Q0.846118 8.17313 0.786733 8.01529Q0.727348 7.85745 0.682902 7.69478Q0.638456 7.5321 0.609333 7.366Q0.580211 7.19989 0.566665 7.0318L0.335201 4.15954Q0.32722 4.0605 0.324358 3.96118Q0.321495 3.86187 0.323759 3.76253Q0.326023 3.6632 0.333408 3.56411Q0.340792 3.46503 0.353277 3.36646Q0.365762 3.26788 0.383315 3.17009Q0.400867 3.07229 0.42344 2.97553Q0.446014 2.87877 0.473548 2.7833Q0.501082 2.68783 0.533503 2.59391Q0.565924 2.49999 0.603146 2.40787Q0.640369 2.31574 0.682293 2.22566Q0.724217 2.13558 0.770732 2.04778Q0.817246 1.95998 0.868228 1.8747Q0.919209 1.78942 0.974521 1.70688Q1.02983 1.62434 1.08933 1.54476Q1.14882 1.46518 1.21234 1.38878Q1.27587 1.31238 1.34324 1.23935Q1.41062 1.16633 1.48167 1.09687Q1.55273 1.02742 1.62727 0.961725Q1.70181 0.896029 1.77964 0.834266Q1.85747 0.772503 1.93838 0.714836Q2.01929 0.657169 2.10307 0.603752Q2.18685 0.550335 2.27328 0.501311Q2.3597 0.452286 2.44853 0.407784Q2.53737 0.363282 2.62838 0.323421Q2.7194 0.28356 2.81234 0.248447Q2.90529 0.213333 2.99993 0.183061Q3.09456 0.152788 3.19063 0.127437Q3.28671 0.102085 3.38396 0.0817226Q3.48121 0.06136 3.57938 0.0460405Q3.67755 0.0307209 3.77638 0.0204851Q3.87521 0.0102494 3.97444 0.0051247Q4.07366 5.66435e-14 4.17302 5.66435e-14L4.17302 5.66435e-14Z" transform="translate(1.669643 0)" id="path_4" />
    <path d="M2.999 0L14.001 0Q14.1483 0 14.295 0.014441Q14.4416 0.028882 14.5861 0.0576249Q14.7306 0.0863679 14.8716 0.129136Q15.0126 0.171904 15.1487 0.228285Q15.2848 0.284667 15.4147 0.354118Q15.5447 0.42357 15.6672 0.505423Q15.7897 0.587276 15.9035 0.680742Q16.0174 0.774208 16.1216 0.878387Q16.2258 0.982566 16.3193 1.09645Q16.4127 1.21034 16.4946 1.33284Q16.5764 1.45535 16.6459 1.58528Q16.7153 1.71522 16.7717 1.85133Q16.8281 1.98745 16.8709 2.12844Q16.9136 2.26942 16.9424 2.41392Q16.9711 2.55842 16.9856 2.70505Q17 2.85167 17 2.999L17 4.60517Q17 4.71817 16.9945 4.83103Q16.9889 4.9439 16.9778 5.05636Q16.9668 5.16881 16.9502 5.28059Q16.9336 5.39237 16.9116 5.5032Q16.8895 5.61403 16.862 5.72364Q16.8346 5.83326 16.8018 5.94139Q16.769 6.04953 16.7309 6.15593Q16.6928 6.26232 16.6496 6.36672Q16.6064 6.47112 16.558 6.57327Q16.5097 6.67543 16.4565 6.77508Q16.4032 6.87474 16.3451 6.97167Q16.287 7.06859 16.2242 7.16255Q16.1614 7.25651 16.0941 7.34727Q16.0268 7.43803 15.9551 7.52538Q15.8834 7.61274 15.8076 7.69646Q15.7317 7.78019 15.6518 7.8601Q15.5719 7.94 15.4881 8.01589Q15.4044 8.09178 15.317 8.16346Q15.2297 8.23515 15.1389 8.30246Q15.0482 8.36978 14.9542 8.43256Q14.8603 8.49534 14.7633 8.55343Q14.6664 8.61153 14.5667 8.6648Q14.4671 8.71807 14.3649 8.76638Q14.2628 8.81469 14.1584 8.85794Q14.054 8.90118 13.9476 8.93925Q13.8412 8.97732 13.7331 9.01012Q13.6249 9.04293 13.5153 9.07038Q13.4057 9.09784 13.2949 9.11988Q13.184 9.14193 13.0723 9.15851Q12.9605 9.17509 12.848 9.18617Q12.7356 9.19724 12.6227 9.20279Q12.5098 9.20833 12.3968 9.20833L4.60317 9.20833Q4.49017 9.20833 4.3773 9.20279Q4.26443 9.19724 4.15198 9.18617Q4.03952 9.17509 3.92774 9.15851Q3.81596 9.14193 3.70513 9.11988Q3.5943 9.09784 3.48469 9.07038Q3.37507 9.04293 3.26694 9.01012Q3.1588 8.97732 3.05241 8.93925Q2.94601 8.90118 2.84161 8.85794Q2.73721 8.81469 2.63506 8.76638Q2.53291 8.71807 2.43325 8.6648Q2.33359 8.61153 2.23667 8.55343Q2.13974 8.49534 2.04578 8.43256Q1.95183 8.36978 1.86106 8.30246Q1.7703 8.23515 1.68295 8.16346Q1.5956 8.09178 1.51187 8.01589Q1.42814 7.94 1.34824 7.8601Q1.26833 7.78019 1.19245 7.69646Q1.11656 7.61274 1.04487 7.52538Q0.973183 7.43803 0.905869 7.34727Q0.838554 7.25651 0.775773 7.16255Q0.712993 7.06859 0.654899 6.97167Q0.596805 6.87474 0.543536 6.77508Q0.490268 6.67543 0.441953 6.57327Q0.393639 6.47112 0.350395 6.36672Q0.307151 6.26232 0.269082 6.15593Q0.231013 6.04953 0.198211 5.9414Q0.165408 5.83326 0.137951 5.72365Q0.110494 5.61403 0.0884485 5.5032Q0.0664031 5.39237 0.0498223 5.28059Q0.0332416 5.16881 0.0221655 5.05636Q0.0110894 4.9439 0.00554472 4.83103Q0 4.71817 0 4.60517L0 2.999Q0 2.85167 0.014441 2.70505Q0.028882 2.55842 0.0576249 2.41392Q0.0863679 2.26942 0.129136 2.12844Q0.171904 1.98745 0.228285 1.85133Q0.284667 1.71522 0.354118 1.58528Q0.42357 1.45535 0.505423 1.33284Q0.587276 1.21034 0.680742 1.09645Q0.774208 0.982566 0.878387 0.878387Q0.982566 0.774208 1.09645 0.680742Q1.21034 0.587276 1.33284 0.505423Q1.45535 0.42357 1.58528 0.354118Q1.71522 0.284667 1.85133 0.228285Q1.98745 0.171904 2.12844 0.129136Q2.26942 0.0863679 2.41392 0.0576249Q2.55842 0.028882 2.70505 0.014441Q2.85167 0 2.999 0L2.999 0Z" transform="translate(0 17.26563)" id="path_5" />
    <path d="M1.21329 0L1.21529 0Q1.27489 0 1.33421 0.0058423Q1.39353 0.0116846 1.45199 0.023313Q1.51045 0.0349413 1.56748 0.0522437Q1.62452 0.0695461 1.67959 0.0923559Q1.73466 0.115166 1.78723 0.143263Q1.83979 0.171361 1.88935 0.204476Q1.93891 0.23759 1.98499 0.275403Q2.03106 0.313216 2.07321 0.355363Q2.11536 0.39751 2.15317 0.443586Q2.19098 0.489661 2.2241 0.539221Q2.25721 0.58878 2.28531 0.641347Q2.31341 0.693914 2.33622 0.748982Q2.35903 0.804049 2.37633 0.861088Q2.39363 0.918126 2.40526 0.976586Q2.41689 1.03505 2.42273 1.09436Q2.42857 1.15368 2.42857 1.21329L2.42857 6.84401Q2.42857 6.90361 2.42273 6.96293Q2.41689 7.02225 2.40526 7.08071Q2.39363 7.13917 2.37633 7.1962Q2.35903 7.25324 2.33622 7.30831Q2.31341 7.36338 2.28531 7.41595Q2.25721 7.46851 2.2241 7.51807Q2.19098 7.56763 2.15317 7.61371Q2.11536 7.65978 2.07321 7.70193Q2.03106 7.74408 1.98499 7.78189Q1.93891 7.8197 1.88935 7.85282Q1.83979 7.88593 1.78723 7.91403Q1.73466 7.94213 1.67959 7.96494Q1.62452 7.98775 1.56748 8.00505Q1.51045 8.02235 1.45199 8.03398Q1.39353 8.04561 1.33421 8.05145Q1.27489 8.05729 1.21529 8.05729L1.21329 8.05729Q1.15368 8.05729 1.09436 8.05145Q1.03505 8.04561 0.976586 8.03398Q0.918126 8.02235 0.861088 8.00505Q0.804049 7.98775 0.748982 7.96494Q0.693914 7.94213 0.641347 7.91403Q0.58878 7.88593 0.539221 7.85282Q0.489661 7.8197 0.443586 7.78189Q0.39751 7.74408 0.355363 7.70193Q0.313216 7.65978 0.275403 7.61371Q0.23759 7.56763 0.204476 7.51807Q0.171361 7.46851 0.143263 7.41595Q0.115166 7.36338 0.0923559 7.30831Q0.0695461 7.25324 0.0522437 7.1962Q0.0349413 7.13917 0.023313 7.08071Q0.0116846 7.02225 0.0058423 6.96293Q0 6.90361 0 6.84401L0 1.21329Q0 1.15368 0.0058423 1.09436Q0.0116846 1.03505 0.023313 0.976586Q0.0349413 0.918126 0.0522437 0.861088Q0.0695461 0.804049 0.0923559 0.748982Q0.115166 0.693914 0.143263 0.641347Q0.171361 0.58878 0.204476 0.539221Q0.23759 0.489661 0.275403 0.443586Q0.313216 0.39751 0.355363 0.355363Q0.39751 0.313216 0.443586 0.275403Q0.489661 0.23759 0.539221 0.204476Q0.58878 0.171361 0.641347 0.143263Q0.693914 0.115166 0.748982 0.0923559Q0.804049 0.0695461 0.861088 0.0522437Q0.918126 0.0349413 0.976586 0.023313Q1.03505 0.0116846 1.09436 0.0058423Q1.15368 0 1.21329 0L1.21329 0Z" transform="translate(7.285714 10.35938)" id="path_6" />
    <path d="M1.28536 0L1.28719 0Q1.3483 0 1.40836 0.0113409Q1.46841 0.0226818 1.52532 0.0449698Q1.58223 0.0672577 1.63401 0.0997184Q1.68579 0.132179 1.73065 0.173685Q1.77551 0.215191 1.81189 0.264301Q1.84827 0.31341 1.8749 0.368417Q1.90154 0.423424 1.9175 0.482419Q1.93347 0.541413 1.93821 0.602345L2.33448 5.6967Q2.33897 5.7544 2.3375 5.81225Q2.33603 5.87011 2.32862 5.92751Q2.32121 5.98491 2.30793 6.04124Q2.29466 6.09757 2.27566 6.15224Q2.25666 6.20691 2.23214 6.25933Q2.20762 6.31175 2.17784 6.36138Q2.14806 6.411 2.11333 6.4573Q2.0786 6.5036 2.0393 6.54608Q1.99999 6.58856 1.95653 6.62677Q1.91306 6.66499 1.8659 6.69853Q1.81873 6.73207 1.76837 6.76058Q1.718 6.78909 1.66497 6.81227Q1.61194 6.83545 1.55681 6.85306Q1.50168 6.87066 1.44503 6.8825Q1.38838 6.89435 1.33081 6.9003Q1.27324 6.90625 1.21537 6.90625L1.21318 6.90625Q1.15579 6.90625 1.0987 6.90027Q1.04162 6.8943 0.985464 6.88241Q0.929311 6.87052 0.874702 6.85285Q0.820093 6.83518 0.767621 6.81191Q0.715149 6.78865 0.665384 6.76006Q0.61562 6.73146 0.569103 6.69783Q0.522587 6.66421 0.479826 6.62592Q0.437064 6.58763 0.398521 6.5451Q0.359979 6.50257 0.326075 6.45626Q0.29217 6.40994 0.263273 6.36035Q0.234376 6.31076 0.210799 6.25843Q0.187223 6.2061 0.169225 6.1516Q0.151226 6.09709 0.139 6.04101Q0.126775 5.98493 0.120455 5.92789Q0.114136 5.87084 0.113791 5.81344Q0.113446 5.75605 0.11908 5.69893L0.621869 0.601266Q0.627908 0.540032 0.645053 0.480938Q0.662198 0.421844 0.689869 0.366886Q0.717539 0.311928 0.754801 0.262962Q0.792063 0.213997 0.837657 0.172679Q0.883252 0.13136 0.935638 0.0990843Q0.988024 0.0668085 1.04543 0.0446658Q1.10284 0.0225231 1.16333 0.0112616Q1.22382 0 1.28536 0L1.28536 0Z" transform="translate(7.285714 20.71875)" id="path_7" />
    <path d="M6.07034 8.18184e-14L6.07251 8.18184e-14Q6.21701 8.18184e-14 6.36132 0.00745557Q6.50563 0.0149111 6.64937 0.0298024Q6.7931 0.0446937 6.93587 0.066981Q7.07865 0.0892684 7.22008 0.118892Q7.36151 0.148516 7.50123 0.185398Q7.64095 0.22228 7.77857 0.266321Q7.9162 0.310362 8.05137 0.361446Q8.18654 0.412529 8.3189 0.470519Q8.45125 0.528509 8.58044 0.59325Q8.70963 0.657991 8.83531 0.729312Q8.96098 0.800632 9.08281 0.878342Q9.20464 0.956051 9.32229 1.03994Q9.43995 1.12384 9.55312 1.21369Q9.66629 1.30354 9.77468 1.39911Q9.88306 1.49468 9.98637 1.59571Q10.0897 1.69675 10.1876 1.80298Q10.2856 1.90921 10.3779 2.02035Q10.4703 2.13149 10.5568 2.24725Q10.6433 2.36301 10.7237 2.48308Q10.8041 2.60315 10.8782 2.72721Q10.9523 2.85126 11.0199 2.97898Q11.0875 3.10669 11.1484 3.23772Q11.2093 3.36876 11.2634 3.50276Q11.3175 3.63676 11.3646 3.77337Q11.4117 3.90998 11.4517 4.04884Q11.4916 4.1877 11.5244 4.32844Q11.5572 4.46918 11.5826 4.61142Q11.6081 4.75367 11.6262 4.89703Q11.6443 5.0404 11.6549 5.1845Q11.6656 5.32861 11.6688 5.47308Q11.672 5.61755 11.6678 5.76199Q11.6636 5.90643 11.6519 6.05045L11.3214 10.1232Q11.3114 10.2454 11.2958 10.3671Q11.2803 10.4887 11.259 10.6094Q11.2378 10.7302 11.2109 10.8498Q11.1841 10.9695 11.1517 11.0877Q11.1194 11.206 11.0815 11.3226Q11.0437 11.4393 11.0004 11.554Q10.9572 11.6687 10.9087 11.7813Q10.8602 11.8939 10.8065 12.0042Q10.7528 12.1144 10.694 12.222Q10.6352 12.3296 10.5715 12.4343Q10.5077 12.5391 10.4392 12.6408Q10.3707 12.7424 10.2975 12.8408Q10.2243 12.9392 10.1466 13.034Q10.0689 13.1289 9.98689 13.22Q9.90487 13.3112 9.8187 13.3984Q9.73253 13.4856 9.64239 13.5688Q9.55225 13.6519 9.45834 13.7307Q9.36443 13.8095 9.26695 13.8839Q9.16948 13.9583 9.06865 14.0281Q8.96781 14.0978 8.86384 14.1628Q8.75987 14.2278 8.65299 14.2879Q8.54611 14.348 8.43655 14.403Q8.32698 14.4581 8.21498 14.508Q8.10297 14.5578 7.98877 14.6025Q7.87456 14.6471 7.7584 14.6863Q7.64224 14.7256 7.52438 14.7594Q7.40652 14.7932 7.28722 14.8215Q7.16791 14.8498 7.04742 14.8725Q6.92692 14.8952 6.80551 14.9123Q6.68409 14.9293 6.562 14.9407Q6.43992 14.9521 6.31744 14.9578Q6.19496 14.9635 6.07235 14.9635L6.07051 14.9635Q5.94789 14.9635 5.82541 14.9578Q5.70293 14.9521 5.58085 14.9407Q5.45877 14.9293 5.33735 14.9123Q5.21593 14.8952 5.09544 14.8725Q4.97495 14.8498 4.85564 14.8215Q4.73633 14.7932 4.61847 14.7594Q4.50061 14.7256 4.38446 14.6863Q4.2683 14.6471 4.15409 14.6025Q4.03989 14.5578 3.92788 14.508Q3.81587 14.4581 3.70631 14.403Q3.59675 14.348 3.48987 14.2879Q3.38298 14.2278 3.27901 14.1628Q3.17504 14.0978 3.07421 14.0281Q2.97338 13.9583 2.8759 13.8839Q2.77843 13.8095 2.68452 13.7307Q2.59061 13.6519 2.50047 13.5688Q2.41033 13.4856 2.32416 13.3984Q2.23798 13.3112 2.15596 13.22Q2.07395 13.1289 1.99626 13.034Q1.91857 12.9392 1.84538 12.8408Q1.77219 12.7424 1.70365 12.6408Q1.63512 12.5391 1.5714 12.4343Q1.50767 12.3296 1.44889 12.222Q1.39011 12.1144 1.33639 12.0042Q1.28268 11.8939 1.23416 11.7813Q1.18564 11.6687 1.14241 11.554Q1.09918 11.4393 1.06134 11.3226Q1.02349 11.206 0.991121 11.0877Q0.958747 10.9695 0.931912 10.8498Q0.905078 10.7302 0.88384 10.6094Q0.862602 10.4887 0.847008 10.3671Q0.831414 10.2454 0.821496 10.1232L0.490992 6.05045Q0.479304 5.90643 0.475063 5.76199Q0.470822 5.61755 0.474039 5.47308Q0.477256 5.32861 0.487922 5.1845Q0.498588 5.0404 0.516675 4.89703Q0.534763 4.75367 0.560223 4.61142Q0.585683 4.46918 0.618448 4.32844Q0.651213 4.1877 0.691196 4.04884Q0.731179 3.90998 0.778273 3.77337Q0.825368 3.63676 0.879448 3.50276Q0.933528 3.36876 0.994449 3.23772Q1.05537 3.10669 1.12297 2.97898Q1.19057 2.85126 1.26467 2.72721Q1.33877 2.60315 1.41918 2.48308Q1.49958 2.36301 1.58607 2.24725Q1.67256 2.13149 1.76491 2.02035Q1.85726 1.90921 1.95521 1.80298Q2.05317 1.69675 2.15648 1.59571Q2.25979 1.49468 2.36818 1.39911Q2.47656 1.30354 2.58973 1.21369Q2.70291 1.12384 2.82056 1.03994Q2.93822 0.956051 3.06005 0.878342Q3.18187 0.800632 3.30755 0.729312Q3.43323 0.657991 3.56241 0.59325Q3.6916 0.528509 3.82396 0.470519Q3.95631 0.412529 4.09149 0.361446Q4.22666 0.310363 4.36428 0.266321Q4.50191 0.22228 4.64163 0.185398Q4.78134 0.148516 4.92278 0.118892Q5.06421 0.0892684 5.20698 0.066981Q5.34976 0.0446937 5.49349 0.0298024Q5.63722 0.0149111 5.78153 0.00745557Q5.92584 8.18184e-14 6.07034 8.18184e-14L6.07034 8.18184e-14Z" transform="translate(2.428571 0)" id="path_8" />
  </defs>
  <g id="icon_Salespartner" style="mix-blend-mode: luminosity;">
    <g id="Group-Copy" transform="translate(2.125 4.25)">
      <g id="Group-2">
        <g id="Rectangle-Copy-3">
          <use xlink:href="#path_1" fill="none" stroke="#171932" stroke-width="2.8" />
          <use stroke="none" fill="#FFFFFF" xlink:href="#path_1" />
        </g>
        <g id="Rectangle">
          <use xlink:href="#path_2" fill="none" stroke="#171932" stroke-width="2.8" />
          <use stroke="none" fill="#FFFFFF" xlink:href="#path_2" />
        </g>
        <g id="Rectangle">
          <use xlink:href="#path_3" fill="none" stroke="#171932" stroke-width="2.8" />
          <use stroke="none" fill="#FFFFFF" xlink:href="#path_3" />
        </g>
        <g id="Rectangle-Copy">
          <use xlink:href="#path_4" fill="none" stroke="#171932" stroke-width="2.8" />
          <use stroke="none" fill="#FFFFFF" xlink:href="#path_4" />
        </g>
      </g>
    </g>
    <g id="Group-Copy-2" transform="translate(20.1875 4.25)">
      <g id="Group-2">
        <g id="Rectangle-Copy-3">
          <use xlink:href="#path_1" fill="none" stroke="#171932" stroke-width="2.8" />
          <use stroke="none" fill="#FFFFFF" xlink:href="#path_1" />
        </g>
        <g id="Rectangle">
          <use xlink:href="#path_2" fill="none" stroke="#171932" stroke-width="2.8" />
          <use stroke="none" fill="#FFFFFF" xlink:href="#path_2" />
        </g>
        <g id="Rectangle">
          <use xlink:href="#path_3" fill="none" stroke="#171932" stroke-width="2.8" />
          <use stroke="none" fill="#FFFFFF" xlink:href="#path_3" />
        </g>
        <g id="Rectangle-Copy">
          <use xlink:href="#path_4" fill="none" stroke="#171932" stroke-width="2.8" />
          <use stroke="none" fill="#FFFFFF" xlink:href="#path_4" />
        </g>
      </g>
    </g>
    <g id="Group" transform="translate(8.5 4.25)">
      <g id="Group-2">
        <g id="Rectangle-Copy-3">
          <use xlink:href="#path_5" fill="none" stroke="#171932" stroke-width="2.8" />
          <use stroke="none" fill="#FFFFFF" xlink:href="#path_5" />
        </g>
        <g id="Rectangle">
          <use xlink:href="#path_6" fill="none" stroke="#171932" stroke-width="2.8" />
          <use stroke="none" fill="#FFFFFF" xlink:href="#path_6" />
        </g>
        <g id="Rectangle">
          <use xlink:href="#path_7" fill="none" stroke="#171932" stroke-width="2.8" />
          <use stroke="none" fill="#FFFFFF" xlink:href="#path_7" />
        </g>
        <g id="Rectangle-Copy">
          <use xlink:href="#path_8" fill="none" stroke="#171932" stroke-width="2.8" />
          <use stroke="none" fill="#FFFFFF" xlink:href="#path_8" />
        </g>
      </g>
    </g>
  </g>
</svg>